<svg width="40" height="40" viewBox="0 0 40 40" fill="none" xmlns="http://www.w3.org/2000/svg">
<path d="M12.9309 19.9993C12.9309 19.7181 13.0427 19.4485 13.2419 19.2497C13.441 19.0509 13.7111 18.9393 13.9927 18.9393H18.9378V14.0023C18.9378 13.7212 19.0497 13.4516 19.2488 13.2528C19.4479 13.054 19.718 12.9423 19.9996 12.9423C20.2812 12.9423 20.5513 13.054 20.7504 13.2528C20.9495 13.4516 21.0614 13.7212 21.0614 14.0023V18.9393H26.0065C26.2881 18.9393 26.5582 19.0509 26.7573 19.2497C26.9564 19.4485 27.0683 19.7181 27.0683 19.9993C27.0683 20.2804 26.9564 20.55 26.7573 20.7488C26.5582 20.9476 26.2881 21.0593 26.0065 21.0593H21.0614V25.9963C21.0614 26.2774 20.9495 26.547 20.7504 26.7458C20.5513 26.9446 20.2812 27.0563 19.9996 27.0563C19.718 27.0563 19.4479 26.9446 19.2488 26.7458C19.0497 26.547 18.9378 26.2774 18.9378 25.9963V21.0593H13.9927C13.7111 21.0593 13.441 20.9476 13.2419 20.7488C13.0427 20.55 12.9309 20.2804 12.9309 19.9993Z" fill="#EAEAEA"/>
<path fill-rule="evenodd" clip-rule="evenodd" d="M13.3697 8.36576C17.7761 7.87808 22.223 7.87808 26.6294 8.36576C29.216 8.65409 31.3042 10.6879 31.6071 13.2843C32.131 17.7464 32.131 22.2536 31.6071 26.7157C31.3028 29.312 29.2146 31.3445 26.6294 31.6342C22.223 32.1219 17.7761 32.1219 13.3697 31.6342C10.7832 31.3445 8.695 29.312 8.39204 26.7157C7.86932 22.2538 7.86932 17.7462 8.39204 13.2843C8.695 10.6879 10.7846 8.65409 13.3697 8.36576ZM26.3944 10.4717C22.1442 10.0014 17.855 10.0014 13.6047 10.4717C12.8179 10.5588 12.0835 10.9082 11.5202 11.4635C10.9568 12.0187 10.5974 12.7473 10.5001 13.5317C9.99655 17.8297 9.99655 22.1717 10.5001 26.4697C10.5977 27.2538 10.9573 27.9821 11.5206 28.5371C12.0839 29.092 12.8182 29.4412 13.6047 29.5283C17.8194 29.9975 22.1798 29.9975 26.3944 29.5283C27.1808 29.4409 27.9147 29.0916 28.4777 28.5366C29.0408 27.9817 29.4001 27.2536 29.4977 26.4697C30.0012 22.1717 30.0012 17.8297 29.4977 13.5317C29.3998 12.7481 29.0403 12.0203 28.4773 11.4656C27.9143 10.911 27.1806 10.5618 26.3944 10.4745" fill="#EAEAEA"/>
</svg>
