<svg width="40" height="40" viewBox="0 0 40 40" fill="none" xmlns="http://www.w3.org/2000/svg">
<path fill-rule="evenodd" clip-rule="evenodd" d="M32 20C32 19.5849 31.8777 19.1868 31.6599 18.8932C31.4421 18.5997 31.1467 18.4348 30.8387 18.4348H9.16129C8.8533 18.4348 8.55792 18.5997 8.34013 18.8932C8.12235 19.1868 8 19.5849 8 20C8 20.4151 8.12235 20.8132 8.34013 21.1068C8.55792 21.4003 8.8533 21.5652 9.16129 21.5652H30.8387C31.1467 21.5652 31.4421 21.4003 31.6599 21.1068C31.8777 20.8132 32 20.4151 32 20ZM32 9.56522C32 9.1501 31.8777 8.75198 31.6599 8.45844C31.4421 8.16491 31.1467 8 30.8387 8H9.16129C8.8533 8 8.55792 8.16491 8.34013 8.45844C8.12235 8.75198 8 9.1501 8 9.56522C8 9.98034 8.12235 10.3785 8.34013 10.672C8.55792 10.9655 8.8533 11.1304 9.16129 11.1304H30.8387C31.1467 11.1304 31.4421 10.9655 31.6599 10.672C31.8777 10.3785 32 9.98034 32 9.56522ZM32 30.4348C32 30.0197 31.8777 29.6215 31.6599 29.328C31.4421 29.0345 31.1467 28.8696 30.8387 28.8696H9.16129C8.8533 28.8696 8.55792 29.0345 8.34013 29.328C8.12235 29.6215 8 30.0197 8 30.4348C8 30.8499 8.12235 31.248 8.34013 31.5416C8.55792 31.8351 8.8533 32 9.16129 32H30.8387C31.1467 32 31.4421 31.8351 31.6599 31.5416C31.8777 31.248 32 30.8499 32 30.4348Z" fill="#EAEAEA"/>
</svg>
