<svg width="41" height="40" viewBox="0 0 41 40" fill="none" xmlns="http://www.w3.org/2000/svg">
<path fill-rule="evenodd" clip-rule="evenodd" d="M8 15.9117C8 11.4428 11.3857 8 15.3571 8C17.4043 8 19.2071 9.11228 20.5 10.5523C21.7929 9.11228 23.5943 8 25.6429 8C29.6143 8 33 11.4428 33 15.9117C33 18.9738 31.8729 21.6651 30.3114 23.9426C28.7543 26.2135 26.7143 28.1418 24.7629 29.7092C24.0157 30.3084 23.2629 30.8596 22.5714 31.2668C21.9243 31.6491 21.1786 32 20.5 32C19.8214 32 19.0771 31.6491 18.4286 31.2668C17.6701 30.8033 16.9385 30.2831 16.2386 29.7092C14.2857 28.1418 12.2471 26.2135 10.6886 23.9426C9.12714 21.6651 8 18.9738 8 15.9117ZM15.3571 10.4828C12.3857 10.4828 10.1429 13.0152 10.1429 15.9117C10.1429 18.2339 10.9943 20.3972 12.3657 22.3967C13.74 24.3994 15.59 26.1688 17.4586 27.6684C18.1657 28.2361 18.83 28.7178 19.4014 29.0555C20.0129 29.4163 20.3671 29.5172 20.5 29.5172C20.6329 29.5172 20.9871 29.4163 21.6 29.0538C22.2727 28.641 22.9217 28.1783 23.5429 27.6684C25.41 26.1688 27.26 24.4011 28.6343 22.3967C30.0057 20.3972 30.8571 18.2339 30.8571 15.9117C30.8571 13.0152 28.6143 10.4828 25.6429 10.4828C23.9371 10.4828 22.3429 11.6629 21.35 13.1625C21.25 13.3135 21.1213 13.4359 20.9739 13.5201C20.8265 13.6043 20.6643 13.6481 20.5 13.6481C20.3357 13.6481 20.1735 13.6043 20.0261 13.5201C19.8787 13.4359 19.75 13.3135 19.65 13.1625C18.6571 11.6629 17.0643 10.4828 15.3571 10.4828Z" fill="#EAEAEA"/>
</svg>
