<svg width="40" height="40" viewBox="0 0 40 40" fill="none" xmlns="http://www.w3.org/2000/svg">
<path d="M29.6147 17.5998C29.6147 17.2816 29.4883 16.9764 29.2633 16.7513C29.0382 16.5263 28.733 16.3998 28.4147 16.3998C28.0965 16.3998 27.7913 16.5263 27.5662 16.7513C27.3412 16.9764 27.2147 17.2816 27.2147 17.5998H29.6147ZM12.8147 17.5998C12.8147 17.2816 12.6883 16.9764 12.4633 16.7513C12.2382 16.5263 11.933 16.3998 11.6147 16.3998C11.2965 16.3998 10.9913 16.5263 10.7662 16.7513C10.5412 16.9764 10.4147 17.2816 10.4147 17.5998H12.8147ZM29.9663 20.8483C30.1927 21.0669 30.4958 21.1878 30.8104 21.1851C31.1251 21.1824 31.426 21.0562 31.6485 20.8337C31.871 20.6112 31.9972 20.3102 32 19.9956C32.0027 19.6809 31.8817 19.3778 31.6631 19.1515L29.9663 20.8483ZM20.0147 9.19976L20.8631 8.35135C20.6381 8.12638 20.3329 8 20.0147 8C19.6965 8 19.3914 8.12638 19.1663 8.35135L20.0147 9.19976ZM8.36635 19.1515C8.25173 19.2622 8.16032 19.3946 8.09742 19.541C8.03453 19.6874 8.00143 19.8449 8.00005 20.0042C7.99866 20.1635 8.02902 20.3215 8.08936 20.469C8.1497 20.6165 8.2388 20.7505 8.35147 20.8632C8.46414 20.9758 8.59813 21.0649 8.7456 21.1253C8.89308 21.1856 9.05109 21.216 9.21043 21.2146C9.36976 21.2132 9.52723 21.1801 9.67363 21.1172C9.82004 21.0543 9.95245 20.9629 10.0631 20.8483L8.36635 19.1515ZM14.0147 32H26.0147V29.6H14.0147V32ZM29.6147 28.4V17.5998H27.2147V28.4H29.6147ZM12.8147 28.4V17.5998H10.4147V28.4H12.8147ZM31.6631 19.1515L20.8631 8.35135L19.1663 10.0482L29.9663 20.8483L31.6631 19.1515ZM19.1663 8.35135L8.36635 19.1515L10.0631 20.8483L20.8631 10.0482L19.1663 8.35135ZM26.0147 32C26.9695 32 27.8852 31.6207 28.5603 30.9456C29.2355 30.2704 29.6147 29.3548 29.6147 28.4H27.2147C27.2147 28.7182 27.0883 29.0235 26.8633 29.2485C26.6382 29.4735 26.333 29.6 26.0147 29.6V32ZM14.0147 29.6C13.6965 29.6 13.3913 29.4735 13.1662 29.2485C12.9412 29.0235 12.8147 28.7182 12.8147 28.4H10.4147C10.4147 29.3548 10.794 30.2704 11.4692 30.9456C12.1443 31.6207 13.06 32 14.0147 32V29.6Z" fill="#EAEAEA"/>
</svg>
