<svg width="40" height="40" viewBox="0 0 40 40" fill="none" xmlns="http://www.w3.org/2000/svg">
<path fill-rule="evenodd" clip-rule="evenodd" d="M23.1062 24.5677C21.2491 26.0517 18.8942 26.7681 16.5254 26.57C14.1565 26.3718 11.9534 25.2741 10.3686 23.5022C8.78374 21.7303 7.93748 19.4188 8.0036 17.0425C8.06972 14.6661 9.0432 12.4052 10.7241 10.7243C12.405 9.04326 14.6657 8.06972 17.0419 8.0036C19.4182 7.93748 21.7295 8.78379 23.5013 10.3687C25.2731 11.9536 26.3708 14.1568 26.5689 16.5259C26.7671 18.8949 26.0506 21.2498 24.5668 23.1071L31.6711 30.2104C31.7726 30.3051 31.8541 30.4191 31.9105 30.5459C31.967 30.6727 31.9974 30.8095 31.9998 30.9483C32.0023 31.0871 31.9768 31.2249 31.9248 31.3536C31.8728 31.4823 31.7955 31.5992 31.6973 31.6973C31.5992 31.7954 31.4823 31.8728 31.3536 31.9248C31.2249 31.9768 31.0871 32.0023 30.9484 31.9998C30.8096 31.9974 30.6728 31.967 30.546 31.9105C30.4192 31.854 30.3052 31.7726 30.2105 31.6711L23.1062 24.5677ZM12.1852 22.4154C11.1739 21.4039 10.4851 20.1153 10.2059 18.7125C9.92672 17.3097 10.0696 15.8555 10.6165 14.5339C11.1635 13.2123 12.0899 12.0824 13.2787 11.2872C14.4676 10.4919 15.8654 10.067 17.2957 10.066C18.726 10.0651 20.1244 10.4881 21.3143 11.2818C22.5042 12.0754 23.4322 13.204 23.9809 14.5249C24.5296 15.8458 24.6744 17.2997 24.3971 18.703C24.1198 20.1062 23.4328 21.3957 22.4228 22.4085L22.4159 22.4154L22.409 22.4209C21.052 23.7749 19.213 24.5348 17.296 24.5338C15.379 24.5328 13.5408 23.7708 12.1852 22.4154Z" fill="#EAEAEA"/>
</svg>
