<svg width="44" height="40" viewBox="0 0 44 40" fill="none" xmlns="http://www.w3.org/2000/svg">
<path fill-rule="evenodd" clip-rule="evenodd" d="M36 20C36.0001 20.1947 35.9459 20.3858 35.8432 20.5536C35.7405 20.7214 35.5929 20.8597 35.4158 20.9542L31.9619 22.7985C25.1339 26.4437 17.9361 29.4089 10.4806 31.6477L9.47416 31.9502C9.30417 32.0013 9.12404 32.0133 8.94835 31.9851C8.77265 31.957 8.60632 31.8895 8.4628 31.7881C8.31928 31.6867 8.20261 31.5543 8.12221 31.4015C8.04181 31.2488 7.99994 31.08 8 30.9088V22.5454C8 21.9767 8.45405 21.504 9.04432 21.4574L9.38941 21.4312C12.6437 21.1812 15.8746 20.7029 19.0562 20C15.8297 19.2868 12.5525 18.8045 9.25168 18.5571L9.04735 18.5426C8.76228 18.5213 8.49606 18.3975 8.30189 18.1958C8.10772 17.9941 7.99991 17.7294 8 17.4546V9.09122C7.99994 8.92004 8.04181 8.75125 8.12221 8.5985C8.20261 8.44575 8.31928 8.31332 8.4628 8.21194C8.60632 8.11055 8.77265 8.04304 8.94835 8.01487C9.12404 7.9867 9.30417 7.99867 9.47416 8.04979L10.4806 8.35233C17.9361 10.5911 25.1339 13.5563 31.9619 17.2015L35.4158 19.0458C35.5929 19.1403 35.7405 19.2786 35.8432 19.4464C35.9459 19.6142 36.0001 19.8053 36 20ZM32.528 20L30.8586 19.1098C24.3091 15.6123 17.412 12.7531 10.2703 10.5748V16.451C14.7049 16.835 19.091 17.6292 23.3682 18.8233L23.8298 18.9528C24.0656 19.019 24.2726 19.1569 24.4198 19.3459C24.5671 19.5348 24.6466 19.7645 24.6464 20.0005C24.6462 20.2366 24.5664 20.4662 24.4189 20.6549C24.2714 20.8436 24.0642 20.9813 23.8283 21.0472L23.2381 21.2116C19.0027 22.3856 14.6604 23.1683 10.2703 23.549V29.4252C17.412 27.2469 24.3091 24.3877 30.8586 20.8902L32.528 20Z" fill="#EAEAEA"/>
</svg>
