<svg width="253" height="57" viewBox="0 0 253 57" fill="none" xmlns="http://www.w3.org/2000/svg">
<path d="M3.968 53.512C2.85867 53.512 2.048 52.9787 1.536 51.912C1.024 50.8453 0.768001 48.9467 0.768001 46.216C0.768001 42.376 1.00267 38.3227 1.472 34.056C1.984 29.7467 2.64533 25.096 3.456 20.104C4.18133 16.136 5.90933 13.0853 8.64 10.952C11.4133 8.81867 15.1253 7.06933 19.776 5.704C22.6773 4.85066 25.6853 4.06133 28.8 3.336C31.9147 2.61066 34.8373 2.03466 37.568 1.608C40.3413 1.13867 42.624 0.903999 44.416 0.903999C45.7813 0.903999 46.848 1.11733 47.616 1.544C48.384 1.97066 48.9173 2.504 49.216 3.144C49.5573 3.74133 49.728 4.296 49.728 4.808C49.728 5.61867 49.536 6.344 49.152 6.984C48.768 7.624 47.936 8.11466 46.656 8.456C46.1013 8.62666 44.928 8.92533 43.136 9.352C41.3867 9.736 39.232 10.2053 36.672 10.76C34.1547 11.3147 31.488 11.912 28.672 12.552C25.856 13.1493 23.1253 13.768 20.48 14.408C17.8773 15.176 15.9573 16.1147 14.72 17.224C13.5253 18.2907 12.736 19.848 12.352 21.896C12.2667 22.3227 12.1813 22.92 12.096 23.688C13.8453 23.1333 15.7227 22.6853 17.728 22.344C19.7333 22.0027 21.5893 21.7467 23.296 21.576C25.0027 21.4053 26.2613 21.32 27.072 21.32C27.9253 21.32 28.8213 21.4693 29.76 21.768C30.7413 22.024 31.5733 22.4293 32.256 22.984C32.9813 23.496 33.344 24.1573 33.344 24.968C33.344 25.736 33.0453 26.44 32.448 27.08C31.8507 27.6773 30.6347 28.2533 28.8 28.808C28.416 28.936 27.5413 29.1067 26.176 29.32C24.8533 29.5333 23.2747 29.8107 21.44 30.152C19.648 30.4507 17.8133 30.792 15.936 31.176C14.1013 31.56 12.48 31.9653 11.072 32.392C10.7733 34.696 10.496 37 10.24 39.304C9.984 41.608 9.77067 43.6133 9.6 45.32C9.42933 46.984 9.30134 48.0293 9.216 48.456C8.96 50.0347 8.34133 51.272 7.36 52.168C6.37867 53.064 5.248 53.512 3.968 53.512ZM44.0295 55.816C42.9628 55.816 42.0455 55.432 41.2775 54.664C40.5522 53.896 40.1895 52.7867 40.1895 51.336C40.1895 50.696 40.2748 49.6507 40.4455 48.2C40.6588 46.7067 40.9148 45 41.2135 43.08C41.5548 41.16 41.8748 39.1547 42.1735 37.064C42.5148 34.9733 42.7922 32.9893 43.0055 31.112C43.2615 29.2347 43.4322 27.6347 43.5175 26.312C43.6028 24.6907 44.0295 23.5387 44.7975 22.856C45.5655 22.1307 46.4828 21.768 47.5495 21.768C48.4028 21.768 49.1708 21.9813 49.8535 22.408C50.5788 22.792 51.0268 23.624 51.1975 24.904C51.4108 26.1413 51.4322 27.9333 51.2615 30.28C53.1388 26.8667 55.0375 23.816 56.9575 21.128C58.9202 18.44 60.9682 16.3067 63.1015 14.728C66.6428 12.04 69.8428 10.696 72.7015 10.696C74.3228 10.696 75.3895 11.0587 75.9015 11.784C76.4135 12.5093 76.6695 13.256 76.6695 14.024C76.6695 14.536 76.5415 15.0053 76.2855 15.432C76.0722 15.8587 75.6028 16.3067 74.8775 16.776C74.1522 17.2453 73.0428 17.864 71.5495 18.632C69.5442 19.656 67.5602 21 65.5975 22.664C63.6775 24.328 61.7575 26.4613 59.8375 29.064C57.9175 31.6667 55.9762 34.8667 54.0135 38.664C52.0508 42.4613 50.0242 46.984 47.9335 52.232C47.5495 53.6827 46.9948 54.6427 46.2695 55.112C45.5868 55.5813 44.8402 55.816 44.0295 55.816ZM76.6785 53.96C75.4838 53.96 74.4172 53.5547 73.4785 52.744C72.5825 51.9333 72.1345 50.6107 72.1345 48.776C72.1345 47.7947 72.2625 46.408 72.5185 44.616C72.8172 42.824 73.2012 40.8827 73.6705 38.792C74.1398 36.6587 74.6518 34.5467 75.2065 32.456C75.8038 30.3653 76.3798 28.5093 76.9345 26.888C77.4892 25.224 77.9798 23.9867 78.4065 23.176C78.9612 22.1947 79.4732 21.5973 79.9425 21.384C80.4545 21.128 80.9452 21 81.4145 21C82.2678 21 83.0572 21.256 83.7825 21.768C84.5505 22.28 84.9345 23.4107 84.9345 25.16C84.9345 25.8427 84.8065 26.952 84.5505 28.488C84.2945 29.9813 83.9745 31.7307 83.5905 33.736C83.2065 35.7413 82.7798 37.8107 82.3105 39.944C81.8838 42.0773 81.4572 44.104 81.0305 46.024C80.6465 47.9013 80.3265 49.48 80.0705 50.76C79.8572 51.8267 79.4092 52.616 78.7265 53.128C78.0865 53.6827 77.4038 53.96 76.6785 53.96ZM84.0385 14.664C82.6305 14.664 81.3292 14.2587 80.1345 13.448C78.9398 12.5947 78.3425 11.2933 78.3425 9.544C78.3425 8.09333 78.7052 6.92 79.4305 6.024C80.1558 5.128 81.0092 4.488 81.9905 4.104C83.0145 3.67733 83.9105 3.464 84.6785 3.464C85.4465 3.464 86.2998 3.63466 87.2385 3.976C88.1772 4.27466 88.9878 4.85066 89.6705 5.704C90.3958 6.51466 90.7585 7.688 90.7585 9.224C90.7585 10.248 90.3958 11.1867 89.6705 12.04C88.9452 12.8507 88.0492 13.4907 86.9825 13.96C85.9585 14.4293 84.9772 14.664 84.0385 14.664ZM102.917 55.176C100.271 55.176 98.1378 54.2587 96.5165 52.424C94.8952 50.5467 94.0845 47.5387 94.0845 43.4C94.0845 40.7547 94.3832 38.1093 94.9805 35.464C95.6205 32.776 96.4952 30.2373 97.6045 27.848C98.7565 25.416 100.079 23.2613 101.573 21.384C103.109 19.5067 104.794 18.0347 106.628 16.968C108.463 15.8587 110.362 15.304 112.325 15.304C115.653 15.304 118.255 16.2 120.132 17.992C122.01 19.784 122.949 22.0667 122.949 24.84C122.949 26.9733 122.351 28.9147 121.157 30.664C120.005 32.3707 118.426 33.9067 116.421 35.272C114.415 36.6373 112.175 37.8747 109.701 38.984C107.226 40.0933 104.687 41.096 102.085 41.992C101.871 43.528 101.765 44.8933 101.765 46.088C101.765 46.8133 102.17 47.176 102.981 47.176C104.901 47.176 106.949 46.8773 109.125 46.28C111.343 45.64 113.583 44.8293 115.845 43.848C118.106 42.824 120.282 41.7787 122.373 40.712C124.463 39.6027 126.362 38.5573 128.069 37.576C129.818 36.552 131.247 35.7413 132.357 35.144C133.509 34.504 134.255 34.184 134.597 34.184C135.535 34.184 136.218 34.4613 136.645 35.016C137.071 35.5707 137.285 36.168 137.285 36.808C137.285 37.1067 136.709 37.768 135.557 38.792C134.447 39.816 132.911 41.032 130.949 42.44C129.029 43.8053 126.853 45.2347 124.421 46.728C122.031 48.1787 119.535 49.5653 116.933 50.888C114.373 52.168 111.877 53.192 109.445 53.96C107.055 54.7707 104.879 55.176 102.917 55.176ZM103.173 36.296C104.922 35.272 106.65 34.2053 108.357 33.096C110.106 31.944 111.557 30.664 112.709 29.256C113.861 27.8053 114.437 26.12 114.437 24.2C114.437 23.6453 114.287 23.2827 113.989 23.112C113.69 22.8987 113.263 22.792 112.709 22.792C111.215 22.792 109.85 23.4533 108.613 24.776C107.418 26.0987 106.351 27.8053 105.413 29.896C104.517 31.944 103.77 34.0773 103.173 36.296ZM138.996 53C137.972 53 136.948 52.6587 135.924 51.976C134.943 51.2507 134.132 50.2267 133.492 48.904C132.852 47.5387 132.532 45.896 132.532 43.976C132.532 41.416 132.873 38.6853 133.556 35.784C134.281 32.8827 135.156 29.9813 136.18 27.08C137.204 24.1787 138.207 21.448 139.188 18.888C139.657 17.6507 140.233 16.8187 140.916 16.392C141.599 15.9227 142.495 15.688 143.604 15.688C146.121 15.688 147.38 16.9467 147.38 19.464C147.38 19.8907 147.188 20.7227 146.804 21.96C146.42 23.1547 145.908 24.6267 145.268 26.376C144.671 28.1253 144.031 30.024 143.348 32.072C142.708 34.0773 142.111 36.1253 141.556 38.216C141.044 40.264 140.639 42.2053 140.34 44.04C141.321 42.5467 142.409 40.6907 143.604 38.472C144.841 36.2107 146.143 33.8427 147.508 31.368C148.916 28.8933 150.324 26.5893 151.732 24.456C153.14 22.28 154.527 20.5093 155.892 19.144C157.257 17.7787 158.559 17.096 159.796 17.096C160.863 17.096 161.865 17.3093 162.804 17.736C163.785 18.12 164.639 18.888 165.364 20.04C166.089 21.1493 166.644 22.7493 167.028 24.84C167.455 26.9307 167.668 29.6827 167.668 33.096C167.668 34.8027 167.817 36.4667 168.116 38.088C168.457 39.6667 169.012 40.9893 169.78 42.056C170.548 43.08 171.636 43.592 173.044 43.592C175.476 43.592 177.652 43.144 179.572 42.248C181.492 41.352 183.177 40.3067 184.628 39.112C186.079 37.9173 187.295 36.872 188.276 35.976C188.873 35.3787 189.385 34.9093 189.812 34.568C190.281 34.2267 190.665 34.056 190.964 34.056C191.86 34.056 192.5 34.2907 192.884 34.76C193.311 35.2293 193.524 35.8693 193.524 36.68C193.524 37.1067 193.161 37.896 192.436 39.048C191.711 40.2 190.687 41.5227 189.364 43.016C188.084 44.4667 186.612 45.8747 184.948 47.24C183.284 48.6053 181.492 49.736 179.572 50.632C177.652 51.528 175.689 51.976 173.684 51.976C170.313 51.976 167.519 51.3787 165.3 50.184C163.124 48.9467 161.503 46.8987 160.436 44.04C159.369 41.1387 158.836 37.192 158.836 32.2C158.836 32.072 158.836 31.8587 158.836 31.56C158.836 30.2373 158.815 29.064 158.772 28.04C158.772 27.016 158.708 26.184 158.58 25.544C157.855 26.8667 156.98 28.4453 155.956 30.28C154.975 32.1147 153.908 34.0773 152.756 36.168C151.604 38.216 150.409 40.2427 149.172 42.248C147.935 44.2107 146.697 46.0027 145.46 47.624C144.265 49.2453 143.113 50.5467 142.004 51.528C140.895 52.5093 139.892 53 138.996 53ZM194.23 56.264C192.395 56.264 191.094 56.008 190.326 55.496C189.601 54.984 189.238 54.2373 189.238 53.256C189.238 52.4027 189.537 51.6773 190.134 51.08C190.731 50.44 192.054 49.8 194.102 49.16C196.491 48.4347 198.753 47.6027 200.886 46.664C203.062 45.6827 204.833 44.616 206.198 43.464C207.606 42.312 208.31 41.096 208.31 39.816C208.31 38.9627 208.011 38.344 207.414 37.96C206.859 37.576 206.198 37.384 205.43 37.384C204.79 37.384 203.851 37.4907 202.614 37.704C201.419 37.8747 200.097 38.1093 198.646 38.408C197.195 38.664 195.787 38.8987 194.422 39.112C193.099 39.2827 191.969 39.368 191.03 39.368C188.811 39.368 187.169 38.8773 186.102 37.896C185.035 36.872 184.502 35.5707 184.502 33.992C184.502 33.1387 184.95 31.9653 185.846 30.472C186.742 28.9787 187.937 27.336 189.43 25.544C190.923 23.752 192.587 21.96 194.422 20.168C196.257 18.376 198.113 16.7333 199.99 15.24C201.91 13.704 203.723 12.488 205.43 11.592C207.137 10.6533 208.587 10.184 209.782 10.184C211.147 10.184 212.235 10.6107 213.046 11.464C213.899 12.3173 214.326 13.4693 214.326 14.92C214.326 15.6027 214.262 16.3493 214.134 17.16C214.006 17.928 213.686 18.632 213.174 19.272C212.662 19.8693 211.873 20.296 210.806 20.552C209.739 20.808 208.289 20.7653 206.454 20.424C205.003 21.4907 203.489 22.664 201.91 23.944C200.374 25.1813 198.923 26.4827 197.558 27.848C196.193 29.1707 195.062 30.472 194.166 31.752C195.745 31.24 197.537 30.8347 199.542 30.536C201.547 30.1947 203.574 30.024 205.622 30.024C208.097 30.024 210.102 30.472 211.638 31.368C213.217 32.2213 214.369 33.3733 215.094 34.824C215.862 36.2747 216.246 37.8747 216.246 39.624C216.246 41.5867 215.606 43.5493 214.326 45.512C213.046 47.4747 211.339 49.2667 209.206 50.888C207.073 52.5093 204.705 53.8107 202.102 54.792C199.499 55.7733 196.875 56.264 194.23 56.264ZM232.955 55.112C229.926 55.112 227.494 54.0453 225.659 51.912C223.824 49.736 222.907 46.8347 222.907 43.208C222.907 42.056 223.056 40.8827 223.355 39.688C223.696 38.4933 224.102 37.384 224.571 36.36C224.315 35.976 224.102 35.4853 223.931 34.888C223.803 34.248 223.739 33.5013 223.739 32.648C223.739 29.8747 224.23 27.336 225.211 25.032C226.192 22.6853 227.515 20.6587 229.179 18.952C230.843 17.2453 232.678 15.9227 234.683 14.984C236.688 14.0453 238.715 13.576 240.763 13.576C244.262 13.576 247.12 14.7493 249.339 17.096C251.6 19.4427 252.731 23.0907 252.731 28.04C252.731 30.5147 252.347 33.032 251.579 35.592C250.811 38.152 249.766 40.6053 248.443 42.952C247.163 45.256 245.67 47.3253 243.963 49.16C242.299 50.9947 240.507 52.4453 238.587 53.512C236.71 54.5787 234.832 55.112 232.955 55.112ZM231.931 33.48C232.144 33.9493 232.251 34.504 232.251 35.144C232.251 35.784 232.123 36.4453 231.867 37.128C231.611 37.8107 231.355 38.728 231.099 39.88C230.843 40.9893 230.715 42.5893 230.715 44.68C230.715 45.2347 230.779 45.704 230.907 46.088C231.078 46.4293 231.44 46.6 231.995 46.6C233.446 46.6 234.811 46.1307 236.091 45.192C237.414 44.2533 238.587 43.016 239.611 41.48C240.678 39.944 241.574 38.2373 242.299 36.36C243.067 34.44 243.643 32.4987 244.027 30.536C244.454 28.5307 244.667 26.6747 244.667 24.968C244.667 23.8587 244.454 23.0907 244.027 22.664C243.6 22.2373 242.854 22.024 241.787 22.024C240.336 22.024 238.843 22.4933 237.307 23.432C235.814 24.328 234.555 25.5653 233.531 27.144C232.507 28.68 231.995 30.4293 231.995 32.392C231.995 32.776 231.974 33.1387 231.931 33.48Z" fill="#EAEAEA"/>
</svg>
