<svg width="530" height="152" viewBox="0 0 530 152" fill="none" xmlns="http://www.w3.org/2000/svg">
<path d="M130.153 93.88C130.313 94.2 130.393 94.6 130.393 95.08C130.393 95.4 130.393 95.64 130.393 95.8C130.393 97.24 129.033 98.36 126.313 99.16C123.593 99.96 120.473 100.6 116.953 101.08C113.593 101.56 110.153 101.96 106.633 102.28C103.273 102.44 100.873 102.68 99.4331 103C98.3131 112.44 97.1131 120.28 95.8331 126.52C94.7131 132.76 92.5531 137.72 89.3531 141.4C86.1531 145.08 81.5131 147.64 75.4331 149.08C69.5131 150.68 61.1131 151.48 50.2331 151.48C46.2331 151.48 41.9931 150.76 37.5131 149.32C33.1931 147.88 29.1931 145.8 25.5131 143.08C21.8331 140.2 18.7131 136.68 16.1531 132.52C13.7531 128.36 12.5531 123.56 12.5531 118.12C12.5531 115.56 13.0331 113.64 13.9931 112.36C15.1131 111.08 16.4731 110.44 18.0731 110.44C22.3931 110.44 25.4331 112.12 27.1931 115.48C29.1131 118.84 30.3131 122.2 30.7931 125.56C31.1131 127.8 31.7531 130.04 32.7131 132.28C33.8331 134.52 35.2731 136.52 37.0331 138.28C38.9531 140.04 41.2731 141.48 43.9931 142.6C46.7131 143.56 49.9931 144.04 53.8331 144.04C57.9931 144.04 61.4331 142.6 64.1531 139.72C67.0331 136.68 69.2731 133.16 70.8731 129.16C72.6331 125 73.8331 120.84 74.4731 116.68C75.1131 112.36 75.4331 108.92 75.4331 106.36C75.4331 105.56 75.4331 104.76 75.4331 103.96C75.4331 103.16 75.3531 102.36 75.1931 101.56C75.1931 101.24 73.9931 100.84 71.5931 100.36C69.1931 99.88 66.5531 99.48 63.6731 99.16C60.7931 98.68 58.0731 98.36 55.5131 98.2C53.1131 97.88 51.7531 97.72 51.4331 97.72C48.7131 97.88 46.9531 98.28 46.1531 98.92C45.5131 99.56 44.7131 99.88 43.7531 99.88C42.6331 99.88 42.0731 99.16 42.0731 97.72C42.0731 93.4 43.8331 90.44 47.3531 88.84C51.0331 87.08 55.2731 86.2 60.0731 86.2H77.5931C78.0731 86.2 78.3131 85 78.3131 82.6C78.4731 80.04 78.6331 76.84 78.7931 73C78.9531 69 79.1931 64.6 79.5131 59.8C79.8331 55 80.3931 50.2 81.1931 45.4C81.9931 40.6 83.1131 36.12 84.5531 31.96C85.9931 27.64 87.9131 24.2 90.3131 21.64C86.9531 21 82.6331 20.28 77.3531 19.48C72.0731 18.68 66.3131 17.96 60.0731 17.32C53.9931 16.68 47.7531 16.12 41.3531 15.64C34.9531 15.16 28.9531 14.92 23.3531 14.92C22.3931 14.92 21.0331 15 19.2731 15.16C17.6731 15.32 16.0731 15.8 14.4731 16.6C13.0331 17.24 11.7531 18.28 10.6331 19.72C9.51312 21 8.95312 22.92 8.95312 25.48C8.95312 28.52 10.3131 31.32 13.0331 33.88C15.7531 36.44 18.7131 39.08 21.9131 41.8C25.2731 44.52 28.3131 47.56 31.0331 50.92C33.7531 54.12 35.1131 58.12 35.1131 62.92C35.1131 64.68 34.6331 66.44 33.6731 68.2C32.8731 69.96 31.3531 70.84 29.1131 70.84C26.5531 70.84 23.5931 69.24 20.2331 66.04C17.0331 62.84 13.9931 58.92 11.1131 54.28C8.07312 49.64 5.59312 44.76 3.67312 39.64C1.59312 34.52 0.553118 29.96 0.553118 25.96C0.553118 21.16 1.51312 17.24 3.43312 14.2C5.35312 11 9.59312 8.52 16.1531 6.75999C22.8731 4.84 32.6331 3.56 45.4331 2.92C58.3931 2.28 75.8331 1.96 97.7531 1.96C102.553 1.96 106.153 1.71999 108.553 1.23999C111.113 0.759988 112.793 0.519986 113.593 0.519986C114.393 0.519986 115.593 1.71999 117.193 4.12C118.953 6.51999 121.193 10.52 123.913 16.12C123.913 16.92 122.953 17.56 121.033 18.04C119.113 18.36 117.033 19.32 114.793 20.92C111.273 23.32 108.473 27 106.393 31.96C104.313 36.92 102.713 42.52 101.593 48.76C100.633 54.84 99.9931 61.16 99.6731 67.72C99.5131 74.28 99.4331 80.44 99.4331 86.2C99.4331 86.52 100.873 86.76 103.753 86.92C106.633 86.92 109.833 87.16 113.353 87.64C117.033 87.96 120.553 88.6 123.913 89.56C127.273 90.52 129.353 91.96 130.153 93.88ZM193.744 111.16C193.744 112.28 193.344 115 192.544 119.32C191.904 123.48 190.624 127.96 188.704 132.76C186.944 137.4 184.464 141.56 181.264 145.24C178.224 148.92 174.304 150.76 169.504 150.76C164.384 150.76 160.304 148.92 157.264 145.24C154.224 141.72 151.904 137.48 150.304 132.52C148.704 127.4 147.664 122.12 147.184 116.68C146.704 111.08 146.464 106.44 146.464 102.76C146.464 98.6 146.704 94.44 147.184 90.28C147.664 85.96 147.984 81.72 148.144 77.56C148.144 76.28 147.504 75.48 146.224 75.16C144.944 74.84 143.744 74.68 142.624 74.68C140.704 74.68 139.504 74.92 139.024 75.4C138.544 75.88 138.224 76.44 138.064 77.08L137.104 84.76C136.464 89.88 135.744 94.84 134.944 99.64C134.304 104.28 133.504 108.44 132.544 112.12C131.744 115.64 130.704 118.52 129.424 120.76C128.304 122.84 126.944 123.88 125.344 123.88H125.104C124.464 123.88 123.824 123.72 123.184 123.4C122.704 123.08 122.464 122.28 122.464 121C122.464 120.36 122.624 119.4 122.944 118.12C124.224 112.52 125.024 107.88 125.344 104.2C125.664 100.52 125.904 97.24 126.064 94.36V92.68C126.064 91.88 126.064 90.92 126.064 89.8C126.224 88.68 126.304 87.32 126.304 85.72V79.48C126.304 77.72 126.304 75.88 126.304 73.96C126.304 72.04 126.144 69.96 125.824 67.72L125.104 53.56C125.104 52.6 125.504 51.72 126.304 50.92C127.104 50.12 128.144 49.4 129.424 48.76C130.704 48.12 132.064 47.64 133.504 47.32C134.944 47 136.224 46.84 137.344 46.84C140.064 46.84 141.424 48.6 141.424 52.12V53.32L141.184 58.6V60.04C141.184 61.16 141.424 61.88 141.904 62.2C142.384 62.36 143.344 62.6 144.784 62.92H145.504C146.784 63.08 148.864 63.24 151.744 63.4C154.624 63.56 157.504 63.88 160.384 64.36C163.264 64.84 165.744 65.64 167.824 66.76C170.064 67.72 171.184 69.16 171.184 71.08C171.184 71.72 171.024 72.68 170.704 73.96C170.384 75.08 169.984 76.28 169.504 77.56C169.024 78.68 168.624 79.72 168.304 80.68C167.984 81.64 167.824 82.28 167.824 82.6C164.944 93.64 163.504 105.16 163.504 117.16C163.504 118.12 163.584 119.88 163.744 122.44C163.904 125 164.224 127.64 164.704 130.36C165.184 133.08 165.904 135.48 166.864 137.56C167.824 139.64 169.024 140.68 170.464 140.68C172.864 140.68 175.024 139.24 176.944 136.36C178.864 133.32 180.544 129.88 181.984 126.04C183.424 122.04 184.544 118.04 185.344 114.04C186.304 110.04 186.944 107.08 187.264 105.16C187.584 103.4 188.064 102.36 188.704 102.04C189.504 101.56 190.224 101.32 190.864 101.32C193.104 101.32 194.224 102.76 194.224 105.64C194.224 105.96 194.144 106.84 193.984 108.28C193.984 109.56 193.904 110.52 193.744 111.16ZM220.127 33.88C220.127 35 219.567 35.96 218.447 36.76C217.327 37.4 216.047 37.88 214.607 38.2C213.327 38.52 212.047 38.76 210.767 38.92C209.487 39.08 208.687 39.16 208.367 39.16C205.007 39.16 201.647 38.2 198.287 36.28C195.087 34.36 192.127 31.32 189.407 27.16C189.087 26.68 188.607 26.04 187.967 25.24C187.327 24.44 187.007 23.88 187.007 23.56C187.007 22.76 187.567 22.04 188.687 21.4C189.967 20.76 191.327 20.12 192.767 19.48C194.367 18.84 195.807 18.36 197.087 18.04C198.527 17.72 199.487 17.56 199.967 17.56C203.167 17.56 206.287 18.36 209.327 19.96C212.527 21.56 215.087 24.52 217.007 28.84C217.327 29.32 217.887 30.2 218.687 31.48C219.647 32.6 220.127 33.4 220.127 33.88ZM244.607 106.6C244.127 110.44 243.247 114.44 241.967 118.6C240.687 122.76 238.847 126.68 236.447 130.36C234.207 133.88 231.327 136.84 227.807 139.24C224.287 141.48 219.967 142.6 214.847 142.6C210.847 142.6 206.767 141.24 202.607 138.52C198.447 135.64 195.567 131.88 193.967 127.24C192.527 122.6 191.807 118.12 191.807 113.8C191.807 112.52 191.887 110.6 192.047 108.04C192.207 105.48 192.287 102.36 192.287 98.68V72.28C192.287 71 192.207 69.64 192.047 68.2C192.047 66.76 191.887 65.4 191.567 64.12C191.407 63.48 191.087 62.76 190.607 61.96C190.287 61.16 190.127 60.6 190.127 60.28C190.127 59.64 190.527 59.16 191.327 58.84C192.127 58.36 193.007 58.04 193.967 57.88C194.927 57.72 195.807 57.64 196.607 57.64C197.567 57.64 198.047 57.64 198.047 57.64C198.527 57.64 199.647 57.72 201.407 57.88C203.167 57.88 205.007 58.12 206.927 58.6C208.847 59.08 210.527 59.88 211.967 61C213.567 61.96 214.367 63.4 214.367 65.32C214.527 65.8 214.207 66.68 213.407 67.96C212.767 69.24 212.127 71.48 211.487 74.68C211.327 75.96 211.167 77.16 211.007 78.28C210.847 79.24 210.687 80.36 210.527 81.64C210.367 82.92 210.207 84.52 210.047 86.44C209.887 88.2 209.727 90.52 209.567 93.4V107.8C209.567 110.36 209.647 113 209.807 115.72C209.967 118.28 210.287 120.68 210.767 122.92C211.407 125 212.367 126.76 213.647 128.2C214.927 129.48 216.607 130.12 218.687 130.12C221.727 130.12 224.127 129.24 225.887 127.48C227.647 125.72 229.007 124.2 229.967 122.92C231.727 120.52 233.087 117.56 234.047 114.04C235.007 110.36 235.887 106.6 236.687 102.76L237.167 100.36C237.647 97.96 239.087 96.76 241.487 96.76C243.887 96.76 245.087 98.44 245.087 101.8V103L244.607 106.6ZM309.431 108.04C309.431 112.04 308.711 116.52 307.271 121.48C305.831 126.44 303.591 131.08 300.551 135.4C297.511 139.56 293.591 143.08 288.791 145.96C284.151 148.84 278.551 150.28 271.991 150.28C265.751 150.28 260.471 149.16 256.151 146.92C251.831 144.68 248.231 141.64 245.351 137.8C242.631 133.96 240.631 129.48 239.351 124.36C238.231 119.08 237.671 113.56 237.671 107.8C237.671 102.2 238.311 96.04 239.591 89.32C240.871 82.6 242.871 76.36 245.591 70.6C248.311 64.68 251.751 59.8 255.911 55.96C260.071 51.96 265.111 49.96 271.031 49.96C273.911 49.96 276.631 50.6 279.191 51.88C281.751 53 283.991 54.52 285.911 56.44C287.831 58.36 289.351 60.6 290.471 63.16C291.591 65.72 292.231 68.36 292.391 71.08L292.631 74.44C292.631 78.28 291.991 82.52 290.711 87.16C289.431 91.64 287.591 95.88 285.191 99.88C282.791 103.72 279.831 107 276.311 109.72C272.791 112.28 268.791 113.56 264.311 113.56C263.511 113.56 262.471 113.48 261.191 113.32C260.071 113.16 258.951 112.92 257.831 112.6V119.56C257.831 120.68 258.151 122.28 258.791 124.36C259.591 126.44 260.711 128.52 262.151 130.6C263.591 132.52 265.431 134.28 267.671 135.88C270.071 137.32 272.951 138.04 276.311 138.04C280.951 138.04 284.711 137.16 287.591 135.4C290.631 133.48 293.111 131.08 295.031 128.2C296.951 125.32 298.391 122.12 299.351 118.6C300.471 114.92 301.351 111.4 301.991 108.04C302.471 105.8 302.951 104.28 303.431 103.48C303.911 102.68 304.711 102.28 305.831 102.28C308.231 102.28 309.431 103.64 309.431 106.36V108.04ZM281.111 70.84C281.111 69.56 280.711 68.2 279.911 66.76C279.271 65.32 277.991 64.6 276.071 64.6C273.191 64.6 270.711 66.12 268.631 69.16C266.551 72.2 264.791 75.72 263.351 79.72C262.071 83.56 261.111 87.32 260.471 91C259.831 94.52 259.511 96.84 259.511 97.96V98.68C259.511 100.12 259.591 101.32 259.751 102.28C260.071 103.08 260.951 103.48 262.391 103.48H263.591C266.791 103.48 269.511 102.28 271.751 99.88C273.991 97.48 275.751 94.6 277.031 91.24C278.471 87.88 279.511 84.44 280.151 80.92C280.791 77.4 281.111 74.52 281.111 72.28V70.84ZM341.479 92.68C339.079 96.04 337.079 99.8 335.479 103.96C334.039 107.96 332.759 112.2 331.639 116.68C330.519 121 329.559 125.4 328.759 129.88C328.119 134.2 327.399 138.36 326.599 142.36C326.279 143.32 324.999 143.96 322.759 144.28C320.679 144.6 319.159 144.76 318.199 144.76C315.319 144.76 312.919 144.6 310.999 144.28C309.239 143.96 307.879 143.24 306.919 142.12C305.959 140.84 305.239 139 304.759 136.6C304.279 134.04 303.879 130.68 303.559 126.52L306.679 55.24C306.679 53.16 307.799 52.12 310.039 52.12C310.839 52.12 311.959 52.28 313.399 52.6C314.839 52.76 316.359 53.08 317.959 53.56C319.559 54.04 320.919 54.68 322.039 55.48C323.159 56.12 323.719 56.92 323.719 57.88V106.6C323.879 106.44 324.119 105.8 324.439 104.68C325.559 101.8 326.919 98.28 328.519 94.12C330.119 89.8 331.879 85.72 333.799 81.88C335.719 78.04 337.719 74.76 339.799 72.04C342.039 69.32 344.279 67.96 346.519 67.96C349.399 67.96 351.559 68.68 352.999 70.12C354.599 71.4 355.799 73.08 356.599 75.16C357.399 77.24 357.879 79.48 358.039 81.88C358.199 84.28 358.279 86.6 358.279 88.84C358.279 90.44 358.119 93.08 357.799 96.76C357.479 100.44 357.319 105.96 357.319 113.32C357.319 117.48 357.719 121.24 358.519 124.6C359.319 127.96 360.919 129.64 363.319 129.64C365.079 129.64 366.679 128.84 368.119 127.24C369.559 125.64 370.839 123.64 371.959 121.24C373.239 118.84 374.279 116.28 375.079 113.56C375.879 110.84 376.359 108.28 376.519 105.88C376.679 102.84 377.879 101.32 380.119 101.32C381.559 101.32 382.519 101.8 382.999 102.76C383.479 103.72 383.719 104.84 383.719 106.12V106.6C383.559 109.8 382.919 113.4 381.799 117.4C380.839 121.4 379.319 125.16 377.239 128.68C375.319 132.2 372.759 135.16 369.559 137.56C366.359 139.96 362.439 141.16 357.799 141.16C350.599 141.16 345.959 138.6 343.879 133.48C341.959 128.2 340.999 120.44 340.999 110.2L341.479 92.68ZM436.204 130.12C436.204 133.96 434.924 136.92 432.364 139C429.804 141.08 426.844 142.6 423.484 143.56C420.284 144.52 417.004 145.08 413.644 145.24C410.444 145.56 408.124 145.72 406.684 145.72C404.444 145.72 401.644 145.48 398.284 145C395.084 144.52 391.884 143.8 388.684 142.84C385.644 141.72 383.004 140.2 380.764 138.28C378.684 136.36 377.644 133.96 377.644 131.08C377.644 129.32 378.284 128.12 379.564 127.48C381.004 126.68 382.364 126.28 383.644 126.28C385.404 126.28 387.084 126.92 388.684 128.2C390.444 129.48 392.204 130.84 393.964 132.28C395.884 133.72 397.964 135.08 400.204 136.36C402.444 137.64 405.004 138.28 407.884 138.28C409.164 138.28 410.844 137.88 412.924 137.08C415.164 136.12 416.284 134.52 416.284 132.28C416.284 130.04 415.324 127.88 413.404 125.8C411.644 123.72 409.324 121.56 406.444 119.32C403.724 117.08 400.764 114.76 397.564 112.36C394.364 109.96 391.324 107.4 388.444 104.68C385.724 101.8 383.404 98.68 381.484 95.32C379.724 91.96 378.844 88.28 378.844 84.28C378.844 78.68 380.604 73.96 384.124 70.12C387.804 66.28 392.044 63.24 396.844 61C401.804 58.76 406.844 57.16 411.964 56.2C417.084 55.24 421.084 54.76 423.964 54.76C426.684 54.76 429.404 55.32 432.124 56.44C434.844 57.56 436.204 59.72 436.204 62.92C436.204 63.88 435.964 65.32 435.484 67.24C435.164 69 434.524 70.76 433.564 72.52C432.764 74.28 431.644 75.88 430.204 77.32C428.764 78.6 426.924 79.24 424.684 79.24C424.044 79.24 423.404 79 422.764 78.52C422.124 77.88 421.404 77.24 420.604 76.6C419.804 75.8 418.924 75.16 417.964 74.68C417.164 74.04 416.204 73.72 415.084 73.72C409.484 73.72 405.564 75.4 403.324 78.76C401.084 81.96 399.964 85.4 399.964 89.08C399.964 92.28 401.804 95.64 405.484 99.16C409.324 102.68 413.484 106.2 417.964 109.72C422.604 113.24 426.764 116.76 430.444 120.28C434.284 123.64 436.204 126.92 436.204 130.12ZM524.411 76.36C525.051 75.24 526.171 74.68 527.771 74.68C528.571 74.68 529.131 75.16 529.451 76.12C529.771 77.08 529.931 77.88 529.931 78.52C529.771 83.48 528.651 87.96 526.571 91.96C524.651 95.8 522.571 99.16 520.331 102.04C519.051 103.8 517.611 105.4 516.011 106.84C514.571 108.28 513.051 109.64 511.451 110.92C511.291 113.64 511.131 115.56 510.971 116.68C510.971 117.64 510.891 118.44 510.731 119.08C510.411 121.48 509.611 124.52 508.331 128.2C507.051 131.88 505.211 135.48 502.811 139C500.571 142.52 497.771 145.48 494.411 147.88C491.211 150.44 487.451 151.72 483.131 151.72C481.691 151.72 480.011 151.56 478.091 151.24C476.331 150.92 474.491 150.44 472.571 149.8C470.651 149.32 468.811 148.68 467.051 147.88C465.291 147.24 463.771 146.52 462.491 145.72C458.491 143.48 455.211 140.84 452.651 137.8C450.091 134.76 448.091 131.56 446.651 128.2C445.371 124.68 444.491 121.16 444.011 117.64C443.531 113.96 443.291 110.44 443.291 107.08C443.291 101.32 443.851 95.48 444.971 89.56C446.251 83.64 447.771 77.96 449.531 72.52C451.291 67.08 453.291 62.2 455.531 57.88C457.771 53.56 459.931 50.2 462.011 47.8C464.091 45.56 466.411 44.04 468.971 43.24C471.531 42.28 473.851 41.8 475.931 41.8C478.491 41.8 481.051 42.44 483.611 43.72C486.171 45 488.651 46.6 491.051 48.52C493.451 50.44 495.771 52.68 498.011 55.24C500.411 57.64 502.651 60.04 504.731 62.44C506.331 64.2 507.531 67.08 508.331 71.08C509.131 74.92 509.771 78.84 510.251 82.84C510.571 85.08 510.811 87.48 510.971 90.04C511.131 92.6 511.211 95.24 511.211 97.96C513.611 96.04 515.531 94.04 516.971 91.96C518.411 89.72 519.531 87.64 520.331 85.72C521.291 83.8 522.011 82.04 522.491 80.44C523.131 78.68 523.771 77.32 524.411 76.36ZM497.291 97C497.291 96.36 497.211 94.92 497.051 92.68C497.051 90.44 496.891 87.8 496.571 84.76C496.411 81.72 496.011 78.6 495.371 75.4C494.891 72.04 494.091 69 492.971 66.28C492.011 63.56 490.731 61.32 489.131 59.56C487.531 57.64 485.531 56.68 483.131 56.68C480.731 56.68 478.411 57.64 476.171 59.56C473.931 61.48 471.931 63.96 470.171 67C468.411 70.04 466.971 73.48 465.851 77.32C464.891 81.16 464.411 84.92 464.411 88.6C464.411 95 465.691 99.72 468.251 102.76C470.811 105.64 475.211 107.08 481.451 107.08C486.091 107.08 489.851 106.36 492.731 104.92C495.771 103.48 497.291 102.36 497.291 101.56V97ZM496.091 116.68C494.171 117.96 491.531 118.92 488.171 119.56C484.811 120.2 482.011 120.52 479.771 120.52C475.451 120.52 472.091 120.2 469.691 119.56C467.451 118.92 464.971 117.64 462.251 115.72L462.011 120.76C462.011 122.52 462.251 124.36 462.731 126.28C463.211 128.2 463.931 129.96 464.891 131.56C466.011 133.16 467.531 134.52 469.451 135.64C471.371 136.6 473.771 137.08 476.651 137.08C480.171 137.08 483.131 136.44 485.531 135.16C488.091 133.72 490.091 131.96 491.531 129.88C493.131 127.8 494.251 125.56 494.891 123.16C495.691 120.76 496.091 118.6 496.091 116.68Z" fill="white"/>
</svg>
