<svg width="24" height="24" viewBox="0 0 24 24" fill="none" xmlns="http://www.w3.org/2000/svg">
<path d="M15.8127 4.38711C15.8127 4.05059 15.9466 3.72785 16.185 3.4899C16.4233 3.25194 16.7466 3.11826 17.0836 3.11826C17.4207 3.11826 17.744 3.25194 17.9823 3.4899C18.2207 3.72785 18.3546 4.05059 18.3546 4.38711C18.3546 4.72363 18.2207 5.04636 17.9823 5.28432C17.744 5.52227 17.4207 5.65595 17.0836 5.65595C16.7466 5.65595 16.4233 5.52227 16.185 5.28432C15.9466 5.04636 15.8127 4.72363 15.8127 4.38711Z" fill="#F5F5F5"/>
<path fill-rule="evenodd" clip-rule="evenodd" d="M8.1872 3.11826C7.176 3.11826 6.20621 3.51931 5.49118 4.23317C4.77614 4.94704 4.37444 5.91524 4.37444 6.9248C4.37444 7.93436 4.77614 8.90257 5.49118 9.61643C6.20621 10.3303 7.176 10.7313 8.1872 10.7313C9.19841 10.7313 10.1682 10.3303 10.8832 9.61643C11.5983 8.90257 12 7.93436 12 6.9248C12 5.91524 11.5983 4.94704 10.8832 4.23317C10.1682 3.51931 9.19841 3.11826 8.1872 3.11826ZM5.57847 6.9248C5.57847 6.23405 5.85332 5.57159 6.34255 5.08316C6.83179 4.59473 7.49533 4.32033 8.1872 4.32033C8.87908 4.32033 9.54262 4.59473 10.0319 5.08316C10.5211 5.57159 10.7959 6.23405 10.7959 6.9248C10.7959 7.61555 10.5211 8.27801 10.0319 8.76644C9.54262 9.25488 8.87908 9.52928 8.1872 9.52928C7.49533 9.52928 6.83179 9.25488 6.34255 8.76644C5.85332 8.27801 5.57847 7.61555 5.57847 6.9248Z" fill="#F5F5F5"/>
<path fill-rule="evenodd" clip-rule="evenodd" d="M17.0836 8.19365C16.0724 8.19365 15.1026 8.59469 14.3876 9.30856C13.6726 10.0224 13.2709 10.9906 13.2709 12.0002C13.2709 13.0097 13.6726 13.978 14.3876 14.6918C15.1026 15.4057 16.0724 15.8067 17.0836 15.8067C18.0949 15.8067 19.0646 15.4057 19.7797 14.6918C20.4947 13.978 20.8964 13.0097 20.8964 12.0002C20.8964 10.9906 20.4947 10.0224 19.7797 9.30856C19.0646 8.59469 18.0949 8.19365 17.0836 8.19365ZM14.4749 12.0002C14.4749 11.3094 14.7498 10.647 15.239 10.1585C15.7282 9.67011 16.3918 9.39571 17.0836 9.39571C17.7755 9.39571 18.4391 9.67011 18.9283 10.1585C19.4175 10.647 19.6924 11.3094 19.6924 12.0002C19.6924 12.6909 19.4175 13.3534 18.9283 13.8418C18.4391 14.3303 17.7755 14.6047 17.0836 14.6047C16.3918 14.6047 15.7282 14.3303 15.239 13.8418C14.7498 13.3534 14.4749 12.6909 14.4749 12.0002Z" fill="#F5F5F5"/>
<path fill-rule="evenodd" clip-rule="evenodd" d="M18.6825 0.368668C14.2411 -0.122889 9.75886 -0.122889 5.31747 0.368668C2.76038 0.654158 0.69513 2.66528 0.395193 5.23089C-0.131731 9.72843 -0.131731 14.272 0.395193 18.7695C0.69513 21.3351 2.7591 23.3462 5.31747 23.6317C9.75889 24.1228 14.241 24.1228 18.6825 23.6317C21.2396 23.3462 23.3048 21.3351 23.6047 18.7695C24.1318 14.272 24.1318 9.72842 23.6047 5.23089C23.3048 2.66528 21.2408 0.654158 18.6825 0.368668ZM5.52844 2.25925C9.82962 1.78327 14.1703 1.78327 18.4715 2.25925C20.1618 2.44958 21.5153 3.7806 21.7123 5.45294C22.2219 9.80295 22.2219 14.1974 21.7123 18.5474C21.6104 19.3659 21.2352 20.1262 20.6471 20.7054C20.0591 21.2847 19.2926 21.6491 18.4715 21.7399C14.1703 22.2159 9.82962 22.2159 5.52844 21.7399C4.70735 21.6491 3.94087 21.2847 3.35282 20.7054C2.76477 20.1262 2.38949 19.3659 2.28759 18.5474C1.77802 14.1974 1.77802 9.80295 2.28759 5.45294C2.38949 4.63448 2.76477 3.87421 3.35282 3.29495C3.94087 2.71568 4.70735 2.34998 5.52844 2.25925Z" fill="#F5F5F5"/>
<path fill-rule="evenodd" clip-rule="evenodd" d="M8.1872 13.269C7.176 13.269 6.20621 13.6701 5.49118 14.3839C4.77614 15.0978 4.37444 16.066 4.37444 17.0756C4.37444 18.0851 4.77614 19.0533 5.49118 19.7672C6.20621 20.4811 7.176 20.8821 8.1872 20.8821C9.19841 20.8821 10.1682 20.4811 10.8832 19.7672C11.5983 19.0533 12 18.0851 12 17.0756C12 16.066 11.5983 15.0978 10.8832 14.3839C10.1682 13.6701 9.19841 13.269 8.1872 13.269ZM5.57847 17.0756C5.57847 16.3848 5.85332 15.7224 6.34255 15.2339C6.83179 14.7455 7.49533 14.4711 8.1872 14.4711C8.87908 14.4711 9.54262 14.7455 10.0319 15.2339C10.5211 15.7224 10.7959 16.3848 10.7959 17.0756C10.7959 17.7663 10.5211 18.4288 10.0319 18.9172C9.54262 19.4057 8.87908 19.6801 8.1872 19.6801C7.49533 19.6801 6.83179 19.4057 6.34255 18.9172C5.85332 18.4288 5.57847 17.7663 5.57847 17.0756Z" fill="#F5F5F5"/>
</svg>
