<svg width="104" height="104" viewBox="0 0 104 104" fill="none" xmlns="http://www.w3.org/2000/svg">
<rect width="104" height="104" rx="48" fill="url(#paint0_linear_287_44)"/>
<path d="M36 14C31.7565 14 27.6869 15.6857 24.6863 18.6863C21.6857 21.6869 20 25.7565 20 30C20 34.2435 21.6857 38.3131 24.6863 41.3137C27.6869 44.3143 31.7565 46 36 46C40.2435 46 44.3131 44.3143 47.3137 41.3137C50.3143 38.3131 52 34.2435 52 30C52 25.7565 50.3143 21.6869 47.3137 18.6863C44.3131 15.6857 40.2435 14 36 14Z" fill="black"/>
<path d="M36 58C31.7565 58 27.6869 59.6857 24.6863 62.6863C21.6857 65.6869 20 69.7565 20 74C20 78.2435 21.6857 82.3131 24.6863 85.3137C27.6869 88.3143 31.7565 90 36 90C40.2435 90 44.3131 88.3143 47.3137 85.3137C50.3143 82.3131 52 78.2435 52 74C52 69.7565 50.3143 65.6869 47.3137 62.6863C44.3131 59.6857 40.2435 58 36 58Z" fill="black"/>
<path d="M74 36C69.7565 36 65.6869 37.6857 62.6863 40.6863C59.6857 43.6869 58 47.7565 58 52C58 56.2435 59.6857 60.3131 62.6863 63.3137C65.6869 66.3143 69.7565 68 74 68C78.2435 68 82.3131 66.3143 85.3137 63.3137C88.3143 60.3131 90 56.2435 90 52C90 47.7565 88.3143 43.6869 85.3137 40.6863C82.3131 37.6857 78.2435 36 74 36Z" fill="black"/>
<path d="M68.5218 19.0108C68.5218 17.5525 69.1021 16.154 70.1349 15.1229C71.1677 14.0917 72.5685 13.5125 74.0291 13.5125C75.4898 13.5125 76.8906 14.0917 77.9234 15.1229C78.9562 16.154 79.5365 17.5525 79.5365 19.0108C79.5365 20.469 78.9562 21.8676 77.9234 22.8987C76.8906 23.9298 75.4898 24.5091 74.0291 24.5091C72.5685 24.5091 71.1677 23.9298 70.1349 22.8987C69.1021 21.8676 68.5218 20.469 68.5218 19.0108Z" fill="black"/>
<path fill-rule="evenodd" clip-rule="evenodd" d="M35.4779 13.5125C31.096 13.5125 26.8936 15.2503 23.7951 18.3437C20.6966 21.4372 18.9559 25.6327 18.9559 30.0075C18.9559 34.3822 20.6966 38.5778 23.7951 41.6712C26.8936 44.7646 31.096 46.5025 35.4779 46.5025C39.8598 46.5025 44.0622 44.7646 47.1607 41.6712C50.2591 38.5778 51.9999 34.3822 51.9999 30.0075C51.9999 25.6327 50.2591 21.4372 47.1607 18.3437C44.0622 15.2503 39.8598 13.5125 35.4779 13.5125ZM24.1734 30.0075C24.1734 27.0142 25.3644 24.1436 27.4844 22.027C29.6044 19.9105 32.4798 18.7214 35.4779 18.7214C38.476 18.7214 41.3514 19.9105 43.4714 22.027C45.5914 24.1436 46.7824 27.0142 46.7824 30.0075C46.7824 33.0007 45.5914 35.8714 43.4714 37.9879C41.3514 40.1045 38.476 41.2935 35.4779 41.2935C32.4798 41.2935 29.6044 40.1045 27.4844 37.9879C25.3644 35.8714 24.1734 33.0007 24.1734 30.0075Z" fill="black"/>
<path fill-rule="evenodd" clip-rule="evenodd" d="M74.0291 35.5058C69.6472 35.5058 65.4448 37.2437 62.3464 40.3371C59.2479 43.4305 57.5072 47.6261 57.5072 52.0008C57.5072 56.3756 59.2479 60.5711 62.3464 63.6646C65.4448 66.758 69.6472 68.4958 74.0291 68.4958C78.411 68.4958 82.6135 66.758 85.7119 63.6646C88.8104 60.5711 90.5511 56.3756 90.5511 52.0008C90.5511 47.6261 88.8104 43.4305 85.7119 40.3371C82.6135 37.2437 78.411 35.5058 74.0291 35.5058ZM62.7246 52.0008C62.7246 49.0076 63.9156 46.1369 66.0357 44.0204C68.1557 41.9038 71.031 40.7148 74.0291 40.7148C77.0273 40.7148 79.9026 41.9038 82.0226 44.0204C84.1426 46.1369 85.3336 49.0076 85.3336 52.0008C85.3336 54.9941 84.1426 57.8647 82.0226 59.9813C79.9026 62.0978 77.0273 63.2869 74.0291 63.2869C71.031 63.2869 68.1557 62.0978 66.0357 59.9813C63.9156 57.8647 62.7246 54.9941 62.7246 52.0008Z" fill="black"/>
<path fill-rule="evenodd" clip-rule="evenodd" d="M80.9573 1.59756C61.7113 -0.53252 42.2884 -0.53252 23.0424 1.59756C11.9616 2.83469 3.01223 11.5496 1.7125 22.6672C-0.570834 42.1565 -0.570834 61.8451 1.7125 81.3345C3.01223 92.4521 11.9561 101.167 23.0424 102.404C42.2885 104.532 61.7112 104.532 80.9573 102.404C92.0381 101.167 100.987 92.4521 102.287 81.3345C104.571 61.8452 104.571 42.1565 102.287 22.6672C100.987 11.5496 92.0436 2.83469 80.9573 1.59756ZM23.9566 9.79008C42.595 7.7275 61.4047 7.7275 80.0431 9.79008C87.3679 10.6148 93.2332 16.3826 94.0868 23.6294C96.295 42.4794 96.295 61.5222 94.0868 80.3722C93.6453 83.9189 92.019 87.2134 89.4708 89.7235C86.9226 92.2337 83.6012 93.8129 80.0431 94.2061C61.4047 96.2688 42.595 96.2688 23.9566 94.2061C20.3985 93.8129 17.0771 92.2337 14.5289 89.7235C11.9807 87.2134 10.3544 83.9189 9.9129 80.3722C7.70473 61.5222 7.70473 42.4794 9.9129 23.6294C10.3544 20.0827 11.9807 16.7883 14.5289 14.2781C17.0771 11.768 20.3985 10.1833 23.9566 9.79008Z" fill="black"/>
<path fill-rule="evenodd" clip-rule="evenodd" d="M35.4779 57.4992C31.096 57.4992 26.8936 59.237 23.7951 62.3304C20.6966 65.4239 18.9559 69.6194 18.9559 73.9942C18.9559 78.3689 20.6966 82.5645 23.7951 85.6579C26.8936 88.7513 31.096 90.4892 35.4779 90.4892C39.8598 90.4892 44.0622 88.7513 47.1607 85.6579C50.2591 82.5645 51.9999 78.3689 51.9999 73.9942C51.9999 69.6194 50.2591 65.4239 47.1607 62.3304C44.0622 59.237 39.8598 57.4992 35.4779 57.4992ZM24.1734 73.9942C24.1734 71.0009 25.3644 68.1303 27.4844 66.0137C29.6044 63.8972 32.4798 62.7081 35.4779 62.7081C38.476 62.7081 41.3514 63.8972 43.4714 66.0137C45.5914 68.1303 46.7824 71.0009 46.7824 73.9942C46.7824 76.9874 45.5914 79.8581 43.4714 81.9746C41.3514 84.0912 38.476 85.2802 35.4779 85.2802C32.4798 85.2802 29.6044 84.0912 27.4844 81.9746C25.3644 79.8581 24.1734 76.9874 24.1734 73.9942Z" fill="black"/>
<defs>
<linearGradient id="paint0_linear_287_44" x1="52" y1="0" x2="52" y2="104" gradientUnits="userSpaceOnUse">
<stop stop-color="#CA2C92"/>
<stop offset="1" stop-color="#85309A"/>
</linearGradient>
</defs>
</svg>
