<svg width="64" height="64" viewBox="0 0 64 64" fill="none" xmlns="http://www.w3.org/2000/svg">
<path d="M55.208 46.5413L53.7944 45.1265L53.7932 45.1277L55.208 46.5413ZM55.208 10.1253L53.7932 11.5389L53.7944 11.5402L55.208 10.1253ZM8.12533 10.1253L9.53894 11.5402L9.54015 11.5389L8.12533 10.1253ZM8.12533 46.5413L9.54063 45.1282L9.53894 45.1265L8.12533 46.5413ZM15.4722 51.3852C16.5715 51.4926 17.5498 50.6885 17.6572 49.5891C17.7646 48.4898 16.9605 47.5115 15.8611 47.4041L15.4722 51.3852ZM26.7573 52.72L25.8362 50.9448L25.836 50.9449L26.7573 52.72ZM17.4533 55.9867L18.5697 54.3273L18.5674 54.3257L17.4533 55.9867ZM16.888 46.9093L18.8797 47.0911L18.8799 47.0889L16.888 46.9093ZM18.9919 45.8462C19.0911 44.7461 18.2796 43.7739 17.1795 43.6747C16.0794 43.5756 15.1072 44.387 15.0081 45.4871L18.9919 45.8462ZM37 51.6667C41.9714 51.6667 45.9016 51.6709 48.9706 51.2582C52.0971 50.8377 54.6278 49.9516 56.6228 47.9549L53.7932 45.1277C52.6655 46.2564 51.1203 46.933 48.4374 47.2938C45.697 47.6624 42.0846 47.6667 37 47.6667V51.6667ZM56.6216 47.9561C58.6183 45.9612 59.5043 43.4304 59.9248 40.3039C60.3376 37.235 60.3333 33.3048 60.3333 28.3333H56.3333C56.3333 33.4179 56.3291 37.0304 55.9605 39.7707C55.5997 42.4536 54.923 43.9988 53.7944 45.1265L56.6216 47.9561ZM60.3333 28.3333C60.3333 23.3619 60.3376 19.4317 59.9248 16.3627C59.5043 13.2363 58.6183 10.7055 56.6216 8.71052L53.7944 11.5402C54.923 12.6678 55.5997 14.2131 55.9605 16.8959C56.3291 19.6363 56.3333 23.2488 56.3333 28.3333H60.3333ZM56.6228 8.71172C54.6278 6.71503 52.0971 5.82901 48.9706 5.40851C45.9016 4.99575 41.9714 5 37 5V9C42.0846 9 45.697 9.00425 48.4374 9.37282C51.1203 9.73365 52.6655 10.4103 53.7932 11.5389L56.6228 8.71172ZM37 5H26.3333V9H37V5ZM26.3333 5C21.3619 5 17.4317 4.99575 14.3627 5.40851C11.2363 5.82901 8.70551 6.71503 6.71052 8.71172L9.54015 11.5389C10.6678 10.4103 12.2131 9.73365 14.8959 9.37282C17.6363 9.00425 21.2488 9 26.3333 9V5ZM6.71172 8.71052C4.71503 10.7055 3.82901 13.2363 3.40851 16.3627C2.99575 19.4317 3 23.3619 3 28.3333H7C7 23.2488 7.00425 19.6363 7.37282 16.8959C7.73365 14.2131 8.4103 12.6678 9.53894 11.5402L6.71172 8.71052ZM3 28.3333C3 33.3048 2.99575 37.235 3.40851 40.3039C3.82901 43.4304 4.71503 45.9612 6.71172 47.9561L9.53894 45.1265C8.4103 43.9988 7.73365 42.4536 7.37282 39.7707C7.00425 37.0304 7 33.4179 7 28.3333H3ZM6.71004 47.9545C8.93644 50.1843 11.8293 51.0293 15.4722 51.3852L15.8611 47.4041C12.5707 47.0827 10.7969 46.3864 9.54063 45.1282L6.71004 47.9545ZM37 47.6667C33.225 47.6667 29.2502 49.1732 25.8362 50.9448L27.6785 54.4952C30.8938 52.8268 34.183 51.6667 37 51.6667V47.6667ZM25.836 50.9449C23.1259 52.3515 21.2447 53.3248 19.8749 53.8571C19.1941 54.1217 18.7713 54.223 18.5234 54.2463C18.3019 54.2673 18.3969 54.211 18.5697 54.3273L16.3369 57.6461C17.1658 58.2037 18.0858 58.3054 18.8992 58.2287C19.6864 58.1544 20.5085 57.9023 21.3237 57.5855C22.946 56.9552 25.0608 55.8539 27.6787 54.4951L25.836 50.9449ZM18.5674 54.3257C18.8252 54.4986 18.5307 54.5927 18.4909 53.1133C18.4552 51.7843 18.6253 49.8784 18.8797 47.0911L14.8963 46.7276C14.652 49.4043 14.4488 51.597 14.4924 53.2207C14.532 54.694 14.7694 56.5947 16.3393 57.6476L18.5674 54.3257ZM18.8799 47.0889L18.9919 45.8462L15.0081 45.4871L14.8961 46.7298L18.8799 47.0889Z" fill="#EAEAEA"/>
<path d="M26.64 45.584C26.1067 45.584 25.648 45.424 25.264 45.104C24.88 44.8054 24.7094 44.1867 24.752 43.248C24.7947 42.2027 24.8694 41.1147 24.976 39.984C25.0827 38.8534 25.2 37.7974 25.328 36.816C25.6054 34.6614 25.6694 32.9974 25.52 31.824C25.392 30.6294 25.0614 29.776 24.528 29.264C24.016 28.752 23.3227 28.4107 22.448 28.24C22.0214 28.1547 21.68 27.9947 21.424 27.76C21.168 27.504 21.04 27.1734 21.04 26.768C21.04 26.2347 21.2534 25.8827 21.68 25.712C22.0854 25.5414 22.608 25.456 23.248 25.456C23.7387 25.456 24.368 25.488 25.136 25.552C25.9254 25.5947 26.768 25.6267 27.664 25.648C28.4107 23.1947 29.2534 21.168 30.192 19.568C31.1307 17.968 32.1547 16.7094 33.264 15.792C34.3734 14.8534 35.5467 14.2027 36.784 13.84C38.0214 13.456 39.3014 13.264 40.624 13.264C42.2667 13.264 43.088 13.8507 43.088 15.024C43.088 15.6 42.8107 16.0374 42.256 16.336C41.7014 16.6347 40.8587 16.88 39.728 17.072C38.384 17.3067 37.2 17.744 36.176 18.384C35.1734 19.024 34.288 19.9307 33.52 21.104C32.7734 22.2774 32.112 23.792 31.536 25.648C34.5014 25.584 36.9334 25.424 38.832 25.168C40.7307 24.912 42.192 24.6667 43.216 24.432C44.2614 24.176 44.9867 24.048 45.392 24.048C45.968 24.048 46.32 24.1867 46.448 24.464C46.5974 24.7414 46.672 25.04 46.672 25.36C46.672 25.7227 46.3307 26.096 45.648 26.48C45.2 26.736 44.4854 27.024 43.504 27.344C42.5227 27.6427 41.3707 27.9414 40.048 28.24C38.7254 28.5174 37.328 28.752 35.856 28.944C34.4054 29.1147 32.9867 29.2 31.6 29.2C31.2587 29.2 30.9494 29.2 30.672 29.2C30.4374 30.4374 30.2027 31.7494 29.968 33.136C29.7547 34.5014 29.5627 35.8347 29.392 37.136C29.2214 38.4374 29.072 39.6214 28.944 40.688C28.8374 41.7547 28.7734 42.608 28.752 43.248C28.7307 44.0374 28.528 44.624 28.144 45.008C27.76 45.392 27.2587 45.584 26.64 45.584Z" fill="#EAEAEA"/>
</svg>
