<svg width="183" height="168" viewBox="0 0 183 168" fill="none" xmlns="http://www.w3.org/2000/svg">
<rect x="2.5" y="2.5" width="178" height="163" rx="14.5" fill="black"/>
<rect x="2.5" y="2.5" width="178" height="163" rx="14.5" stroke="black" stroke-width="5"/>
<path d="M81.5 131.2C79.8333 131.2 78.4 130.7 77.2 129.7C76 128.767 75.4667 126.833 75.6 123.9C75.7333 120.633 75.9667 117.233 76.3 113.7C76.6333 110.167 77 106.867 77.4 103.8C78.2667 97.0667 78.4667 91.8667 78 88.2C77.6 84.4667 76.5667 81.8 74.9 80.2C73.3 78.6 71.1333 77.5333 68.4 77C67.0667 76.7333 66 76.2333 65.2 75.5C64.4 74.7 64 73.6667 64 72.4C64 70.7333 64.6667 69.6333 66 69.1C67.2667 68.5667 68.9 68.3 70.9 68.3C72.4333 68.3 74.4 68.4 76.8 68.6C79.2667 68.7333 81.9 68.8333 84.7 68.9C87.0333 61.2333 89.6667 54.9 92.6 49.9C95.5333 44.9 98.7333 40.9667 102.2 38.1C105.667 35.1667 109.333 33.1333 113.2 32C117.067 30.8 121.067 30.2 125.2 30.2C130.333 30.2 132.9 32.0333 132.9 35.7C132.9 37.5 132.033 38.8667 130.3 39.8C128.567 40.7333 125.933 41.5 122.4 42.1C118.2 42.8333 114.5 44.2 111.3 46.2C108.167 48.2 105.4 51.0333 103 54.7C100.667 58.3667 98.6 63.1 96.8 68.9C106.067 68.7 113.667 68.2 119.6 67.4C125.533 66.6 130.1 65.8333 133.3 65.1C136.567 64.3 138.833 63.9 140.1 63.9C141.9 63.9 143 64.3333 143.4 65.2C143.867 66.0667 144.1 67 144.1 68C144.1 69.1333 143.033 70.3 140.9 71.5C139.5 72.3 137.267 73.2 134.2 74.2C131.133 75.1333 127.533 76.0667 123.4 77C119.267 77.8667 114.9 78.6 110.3 79.2C105.767 79.7333 101.333 80 97 80C95.9333 80 94.9667 80 94.1 80C93.3667 83.8667 92.6333 87.9667 91.9 92.3C91.2333 96.5667 90.6333 100.733 90.1 104.8C89.5667 108.867 89.1 112.567 88.7 115.9C88.3667 119.233 88.1667 121.9 88.1 123.9C88.0333 126.367 87.4 128.2 86.2 129.4C85 130.6 83.4333 131.2 81.5 131.2Z" fill="#EAEAEA"/>
</svg>
