<svg width="405" height="111" viewBox="0 0 405 111" fill="none" xmlns="http://www.w3.org/2000/svg">
<path d="M36.64 64.88C36.72 65.6 36.76 66.36 36.76 67.16C36.84 67.96 36.96 68.8 37.12 69.68C37.28 71.28 37.44 72.88 37.6 74.48C37.84 76 38.08 77.56 38.32 79.16C38.56 81.88 37.36 83.32 34.72 83.48C31.28 83.8 28.44 82.6 26.2 79.88C25.72 79.24 25.36 78.56 25.12 77.84C24.88 77.04 24.68 76.24 24.52 75.44C23.88 72.96 23.4 70.48 23.08 68C22.76 65.44 22.52 62.88 22.36 60.32C22.12 54.48 22.08 48.68 22.24 42.92C22.48 37.08 22.92 31.24 23.56 25.4C23.64 24.36 23.76 23.32 23.92 22.28C24.08 21.24 24.24 20.2 24.4 19.16C24.56 18.36 24.6 17.76 24.52 17.36C24.28 17.2 24.08 17.2 23.92 17.36C23.76 17.44 23.6 17.56 23.44 17.72C21.84 18.76 20.2 19.76 18.52 20.72C16.92 21.68 15.36 22.72 13.84 23.84C12.64 24.72 11.48 25.64 10.36 26.6C9.23997 27.56 8.19997 28.6 7.23997 29.72C6.35997 30.76 5.63997 31.88 5.07997 33.08C4.51997 34.28 4.31997 35.64 4.47997 37.16C4.71997 40.12 6.11997 42.32 8.67997 43.76C9.15997 44 9.63997 44.2 10.12 44.36C10.6 44.52 11.08 44.72 11.56 44.96C11.72 45.12 11.92 45.24 12.16 45.32C12.4 45.4 12.48 45.6 12.4 45.92C12.32 46.32 12.16 46.56 11.92 46.64C11.68 46.64 11.4 46.64 11.08 46.64C8.75997 46.24 6.63997 45.4 4.71997 44.12C2.87997 42.84 1.59997 40.92 0.879971 38.36C0.399971 36.52 0.359971 34.84 0.759971 33.32C1.15997 31.8 1.87997 30.32 2.91997 28.88C3.55997 28 4.19997 27.2 4.83997 26.48C5.55997 25.68 6.35997 24.92 7.23997 24.2C8.51997 23.16 9.79997 22.2 11.08 21.32C12.44 20.44 13.8 19.56 15.16 18.68C16.76 17.64 18.36 16.64 19.96 15.68C21.56 14.64 23.16 13.6 24.76 12.56C25.72 12 26.36 11.2 26.68 10.16C27.16 8.79998 27.84 7.39998 28.72 5.95998C29.92 4.35998 31.44 3.71998 33.28 4.03998C34.64 4.27998 35.8 4.75998 36.76 5.47998C37.88 6.19998 38.32 7.15998 38.08 8.35998C37.44 11.64 37 14.88 36.76 18.08C36.52 21.2 36.32 24.44 36.16 27.8C36.16 27.96 36.12 28.16 36.04 28.4C36.04 28.64 36.16 28.96 36.4 29.36C36.8 28 37.16 26.72 37.48 25.52C37.88 24.32 38.32 23.12 38.8 21.92C39.44 20.08 40.16 18.28 40.96 16.52C41.84 14.68 42.84 12.92 43.96 11.24C45.08 9.47998 46.36 7.99998 47.8 6.79998C49.48 5.35998 51.4 4.87998 53.56 5.35998C55.56 5.83998 57.36 6.63998 58.96 7.75998C60.56 8.79998 61.92 10.24 63.04 12.08C64.4 14.48 65.44 16.96 66.16 19.52C66.88 22.08 67.32 24.76 67.48 27.56C68.2 37.64 65.52 46.8 59.44 55.04C59.04 55.68 59.12 56.12 59.68 56.36C61.68 57.48 63.84 57.8 66.16 57.32C68.48 56.84 70.4 55.68 71.92 53.84C72.72 52.88 73.56 52.08 74.44 51.44C74.84 51.04 75.36 50.88 76 50.96C77.2 51.04 77.56 51.68 77.08 52.88C76.6 53.92 75.88 54.96 74.92 56C74.04 56.96 72.96 57.8 71.68 58.52C70.48 59.16 69.16 59.64 67.72 59.96C66.28 60.28 64.88 60.28 63.52 59.96C62.56 59.8 61.56 59.6 60.52 59.36C59.56 59.12 58.64 58.8 57.76 58.4C57.28 58.16 56.88 58.08 56.56 58.16C56.24 58.24 55.88 58.44 55.48 58.76C52.76 61.24 49.6 63.08 46 64.28C44.64 64.76 43.24 65.08 41.8 65.24C40.44 65.32 39.04 65.16 37.6 64.76C37.28 64.6 36.96 64.64 36.64 64.88ZM36.88 49.4C37.04 49.56 37.16 49.64 37.24 49.64C37.32 49.56 37.44 49.52 37.6 49.52C39.44 48.88 41.24 48.64 43 48.8C44.84 48.96 46.68 49.36 48.52 50C48.92 50.16 49.36 50.4 49.84 50.72C50.32 51.04 50.76 51.08 51.16 50.84C51.56 50.6 51.84 50.24 52 49.76C52.16 49.2 52.32 48.72 52.48 48.32C52.56 48.24 52.6 48.16 52.6 48.08C54.76 43.28 56.12 38.4 56.68 33.44C57.24 28.48 57.16 23.4 56.44 18.2C56.2 15.72 55.6 13.32 54.64 11C54.24 10.12 53.88 9.63998 53.56 9.55998C53.24 9.39998 52.64 9.59998 51.76 10.16C50.88 10.8 50.04 11.52 49.24 12.32C48.52 13.12 47.84 13.96 47.2 14.84C44.8 18.68 42.84 22.88 41.32 27.44C40.44 29.92 39.72 32.44 39.16 35C38.68 37.48 38.2 40 37.72 42.56C37.48 43.68 37.24 44.84 37 46.04C36.84 47.16 36.8 48.28 36.88 49.4ZM49.36 53.48C47.52 52.2 45.4 51.64 43 51.8C40.6 51.88 38.6 52.6 37 53.96C36.52 54.44 36.28 54.84 36.28 55.16C36.12 57.08 36.16 58.84 36.4 60.44C36.48 61.24 36.96 61.6 37.84 61.52C38.32 61.52 38.8 61.4 39.28 61.16C41.36 60.44 43.2 59.4 44.8 58.04C46.4 56.68 47.92 55.16 49.36 53.48Z" fill="#F5F5F5"/>
<path d="M100.79 50.48C101.43 50.64 101.71 51 101.63 51.56C101.55 52.12 101.47 52.64 101.39 53.12C101.39 53.6 101.31 54.12 101.15 54.68C100.11 58.52 98.8303 62.24 97.3103 65.84C95.8703 69.44 94.2303 73 92.3903 76.52C91.9903 77.32 91.5103 78.04 90.9503 78.68C90.4703 79.32 89.9103 79.96 89.2703 80.6C87.6703 82.12 85.7103 82.68 83.3903 82.28C80.9903 81.88 79.0703 81 77.6303 79.64C76.1903 78.2 75.1103 76.36 74.3903 74.12C73.5903 71.64 73.0703 68.96 72.8303 66.08C72.6703 64.4 72.5503 62.76 72.4703 61.16C72.4703 59.48 72.5503 57.88 72.7103 56.36C72.7903 53.32 72.9503 50.36 73.1903 47.48C73.4303 44.52 73.7903 41.64 74.2703 38.84C74.4303 37.64 74.7903 36.8 75.3503 36.32C75.9103 35.84 76.8303 35.68 78.1103 35.84C78.9903 36 79.8303 36.2 80.6303 36.44C81.5103 36.68 82.3503 37.08 83.1503 37.64C84.4303 38.52 84.9103 39.68 84.5903 41.12C83.9503 44.72 83.4303 48.32 83.0303 51.92C82.7103 55.44 82.5903 59 82.6703 62.6C82.7503 64.76 82.8303 66.92 82.9103 69.08C83.0703 71.24 83.3503 73.36 83.7503 75.44C83.8303 75.84 83.8703 76.2 83.8703 76.52C83.9503 76.76 84.0303 77.08 84.1103 77.48C84.3503 78.28 84.7503 78.4 85.3103 77.84C85.5503 77.68 85.7903 77.48 86.0303 77.24C86.2703 77 86.4703 76.8 86.6303 76.64C87.7503 75.52 88.7103 74.32 89.5103 73.04C90.3103 71.76 91.0703 70.44 91.7903 69.08C93.2303 66.36 94.5903 63.64 95.8703 60.92C97.1503 58.12 98.2303 55.24 99.1103 52.28C99.1903 52.12 99.2303 51.92 99.2303 51.68C99.3103 51.44 99.4303 51.24 99.5903 51.08C99.8303 50.6 100.23 50.4 100.79 50.48ZM77.2703 25.52C76.9503 24.32 76.6703 23.12 76.4303 21.92C76.2703 20.72 76.2303 19.56 76.3103 18.44C76.3103 17.8 76.3103 17.24 76.3103 16.76C76.3103 16.2 76.3503 15.64 76.4303 15.08C76.4303 14.36 76.5503 13.88 76.7903 13.64C77.0303 13.4 77.4703 13.24 78.1103 13.16C80.8303 12.92 83.1903 13.76 85.1903 15.68C85.9103 16.32 86.1103 17.08 85.7903 17.96C85.4703 18.68 85.2303 19.44 85.0703 20.24C84.9103 21.04 84.7503 21.84 84.5903 22.64C84.4303 23.52 84.1903 24.36 83.8703 25.16C83.6303 25.96 83.3103 26.76 82.9103 27.56C82.5103 28.52 81.7903 28.88 80.7503 28.64C79.8703 28.48 79.1103 28.16 78.4703 27.68C77.8303 27.2 77.4303 26.48 77.2703 25.52Z" fill="#F5F5F5"/>
<path d="M97.0825 61.64C97.1625 58.2 97.5225 54.96 98.1625 51.92C98.8825 48.88 100.042 46 101.642 43.28C102.762 41.2 104.202 39.56 105.962 38.36C107.722 37.08 109.802 36.28 112.202 35.96C115.562 35.56 118.762 36.28 121.802 38.12C123.242 39 124.282 40.12 124.922 41.48C125.642 42.84 126.082 44.32 126.242 45.92C126.482 48.96 125.842 51.92 124.322 54.8C124.002 55.52 123.562 56.08 123.002 56.48C122.522 56.8 122.082 56.88 121.682 56.72C121.362 56.48 121.202 56.08 121.202 55.52C121.202 54.64 121.202 53.72 121.202 52.76C121.282 51.8 121.282 50.88 121.202 50C121.042 48.64 120.802 47.32 120.482 46.04C120.242 44.68 119.722 43.44 118.922 42.32C117.962 40.96 117.242 40.32 116.762 40.4C116.362 40.4 115.682 41.04 114.722 42.32C113.202 44.24 112.082 46.52 111.362 49.16C110.722 51.72 110.202 54.32 109.802 56.96C109.402 59.52 109.202 62.12 109.202 64.76C109.202 67.4 109.562 70.04 110.282 72.68C111.002 75.24 112.322 77.32 114.242 78.92C114.962 79.64 115.762 79.76 116.642 79.28C118.082 78.72 119.402 77.88 120.602 76.76C124.042 73.4 126.962 69.8 129.362 65.96C131.762 62.12 133.562 57.88 134.762 53.24C134.922 52.84 135.002 52.52 135.002 52.28C135.082 51.96 135.202 51.64 135.362 51.32C135.602 50.6 136.042 50.28 136.682 50.36C137.322 50.44 137.642 50.88 137.642 51.68C137.562 52 137.522 52.28 137.522 52.52C137.522 52.76 137.482 53.04 137.402 53.36C136.042 58 134.322 62.48 132.242 66.8C130.242 71.04 127.642 75.04 124.442 78.8C120.202 83.76 114.762 84.68 108.122 81.56C105.562 80.36 103.482 78.72 101.882 76.64C100.362 74.56 99.1625 72.24 98.2825 69.68C97.8025 68.24 97.4425 66.84 97.2025 65.48C97.0425 64.04 97.0025 62.76 97.0825 61.64Z" fill="#F5F5F5"/>
<path d="M134.262 23.36C132.982 23.52 131.742 23.72 130.542 23.96C129.342 24.12 128.182 24.2 127.062 24.2C123.782 24.36 120.662 24 117.702 23.12C114.982 22.32 113.022 20.72 111.822 18.32C111.022 16.88 110.982 16.04 111.702 15.8C112.182 15.64 112.622 15.68 113.022 15.92C113.342 16.08 113.622 16.36 113.862 16.76C114.342 17.48 114.902 18 115.542 18.32C116.182 18.64 116.862 18.92 117.582 19.16C119.502 19.8 121.422 20.16 123.342 20.24C125.262 20.24 127.182 20.04 129.102 19.64C129.822 19.48 130.542 19.36 131.262 19.28C131.982 19.12 132.702 18.96 133.422 18.8C134.382 18.72 134.862 18.16 134.862 17.12C135.022 15.28 135.262 13.48 135.582 11.72C135.902 9.95998 136.182 8.15998 136.422 6.31998C136.582 5.67998 136.742 5.03998 136.902 4.39998C137.062 3.67998 137.222 2.99998 137.382 2.35998C137.622 1.15998 138.422 0.439977 139.782 0.199975C143.062 -0.200024 145.942 0.599977 148.422 2.59998C149.382 3.31998 149.702 4.27998 149.382 5.47998C148.982 6.91998 148.662 8.39998 148.422 9.91998C148.262 11.44 148.062 12.96 147.822 14.48C148.222 14.64 148.542 14.68 148.782 14.6C149.102 14.44 149.422 14.32 149.742 14.24C151.662 13.68 153.582 13.28 155.502 13.04C157.422 12.72 159.422 12.64 161.502 12.8C163.342 12.96 164.982 13.52 166.422 14.48C167.862 15.44 169.142 16.64 170.262 18.08C170.582 18.64 170.662 19.04 170.502 19.28C170.182 19.6 169.782 19.6 169.302 19.28C169.142 19.28 169.022 19.24 168.942 19.16C167.422 18.12 165.822 17.56 164.142 17.48C162.462 17.4 160.782 17.44 159.102 17.6C157.262 17.76 155.422 18.04 153.582 18.44C151.822 18.76 150.022 19.12 148.182 19.52C147.302 19.76 146.822 20.28 146.742 21.08L146.022 27.2C145.382 33.2 144.982 39.2 144.822 45.2C144.662 51.12 144.662 57.08 144.822 63.08C144.982 65.4 145.182 67.68 145.422 69.92C145.662 72.16 146.182 74.36 146.982 76.52C147.062 76.6 147.102 76.76 147.102 77C147.342 77.64 147.542 78 147.702 78.08C147.942 78.16 148.302 78 148.782 77.6C149.742 76.96 150.582 76.24 151.302 75.44C152.022 74.56 152.702 73.64 153.342 72.68C156.462 67.4 158.742 61.76 160.182 55.76C160.342 55.2 160.502 54.64 160.662 54.08C160.902 53.52 161.102 52.96 161.262 52.4C161.822 51.2 162.542 50.76 163.422 51.08C163.822 51.24 164.062 51.44 164.142 51.68C164.302 51.84 164.342 52.32 164.262 53.12C164.182 54.48 163.982 55.84 163.662 57.2C163.342 58.48 162.982 59.76 162.582 61.04C161.942 63.52 161.182 65.92 160.302 68.24C159.422 70.56 158.382 72.88 157.182 75.2C155.982 77.36 154.502 79.32 152.742 81.08C151.222 82.68 149.382 83.56 147.222 83.72C145.142 83.96 143.182 83.48 141.342 82.28C137.982 79.96 135.862 76.72 134.982 72.56C134.342 69.76 133.822 66.92 133.422 64.04C133.022 61.16 132.822 58.28 132.822 55.4C132.822 54.04 132.822 52.76 132.822 51.56C132.822 50.28 132.942 48.96 133.182 47.6C133.342 46.32 133.422 45.08 133.422 43.88C133.422 42.6 133.422 41.28 133.422 39.92C133.582 37.6 133.702 35.32 133.782 33.08C133.862 30.76 133.982 28.44 134.142 26.12C134.142 25.72 134.142 25.32 134.142 24.92C134.222 24.44 134.262 23.92 134.262 23.36Z" fill="#F5F5F5"/>
<path d="M190.883 67.64C193.043 66.6 194.803 65.24 196.163 63.56C197.843 61.32 199.043 58.76 199.763 55.88C199.923 55.48 200.043 55.08 200.123 54.68C200.203 54.2 200.323 53.72 200.483 53.24C200.563 52.92 200.643 52.68 200.723 52.52C200.803 52.28 201.043 52.2 201.443 52.28C201.843 52.36 202.203 52.48 202.523 52.64C202.843 52.8 203.003 53.08 203.003 53.48C203.003 53.8 203.003 54.12 203.003 54.44C203.083 54.68 203.083 54.96 203.003 55.28C202.523 58.16 201.603 60.8 200.243 63.2C198.963 65.6 197.163 67.68 194.843 69.44C193.643 70.4 192.283 70.88 190.763 70.88C190.123 70.88 189.603 71.28 189.203 72.08C188.803 73.2 188.363 74.28 187.883 75.32C187.483 76.36 186.883 77.32 186.083 78.2C183.523 81.64 180.123 83.04 175.883 82.4C173.003 82 170.443 81.08 168.203 79.64C165.963 78.2 164.123 76.16 162.683 73.52C159.883 68.32 158.563 62.84 158.723 57.08C158.803 54.04 159.243 51.12 160.043 48.32C160.843 45.44 162.163 42.76 164.003 40.28C165.123 38.68 166.443 37.48 167.963 36.68C169.563 35.88 171.403 35.6 173.483 35.84C174.603 36 175.683 36.08 176.723 36.08C177.843 36.08 178.923 36.24 179.963 36.56C182.843 37.6 185.243 39.04 187.163 40.88C189.163 42.64 190.483 45.08 191.123 48.2C191.603 50.36 191.843 52.52 191.843 54.68C191.843 56.6 191.763 58.52 191.603 60.44C191.443 62.36 191.203 64.24 190.883 66.08C190.803 66.32 190.723 66.56 190.643 66.8C190.643 67.04 190.723 67.32 190.883 67.64ZM185.123 55.04C185.123 51.92 184.763 49.04 184.043 46.4C183.163 43.2 181.323 40.92 178.523 39.56C178.283 39.4 178.003 39.28 177.683 39.2C177.443 39.12 177.203 39.24 176.963 39.56C176.563 39.96 176.163 40.36 175.763 40.76C175.363 41.16 175.003 41.56 174.683 41.96C173.643 43.32 172.803 44.72 172.163 46.16C171.603 47.6 171.123 49.12 170.723 50.72C168.723 58.32 169.323 65.92 172.523 73.52C172.843 74.16 173.163 74.76 173.483 75.32C173.803 75.8 174.163 76.32 174.563 76.88C174.963 77.44 175.283 77.76 175.523 77.84C175.843 77.92 176.323 77.8 176.963 77.48C177.843 77.08 178.563 76.56 179.123 75.92C179.763 75.28 180.283 74.56 180.683 73.76C181.083 73.04 181.403 72.32 181.643 71.6C181.963 70.8 182.283 70 182.603 69.2C182.843 68.32 182.723 67.6 182.243 67.04C181.283 66.08 180.763 65.08 180.683 64.04C180.443 62.44 180.723 61.12 181.523 60.08C181.843 59.6 182.243 59.32 182.723 59.24C183.203 59.16 183.683 59.2 184.163 59.36C184.483 59.44 184.643 59.4 184.643 59.24C184.723 59 184.803 58.76 184.883 58.52C184.963 57.88 185.003 57.24 185.003 56.6C185.083 55.96 185.123 55.44 185.123 55.04Z" fill="#F5F5F5"/>
<path d="M218.13 80.72C217.73 80.72 217.45 80.8 217.29 80.96C217.21 81.04 217.09 81.12 216.93 81.2C216.05 81.76 215.13 82.16 214.17 82.4C213.21 82.64 212.17 82.68 211.05 82.52C206.17 81.64 202.69 79.12 200.61 74.96C199.33 72.32 198.61 69.52 198.45 66.56C198.05 60 199.01 53.64 201.33 47.48C202.45 44.36 204.33 41.68 206.97 39.44C208.57 38.08 210.25 37.2 212.01 36.8C213.77 36.4 215.65 36.4 217.65 36.8C218.21 36.88 218.77 37 219.33 37.16C219.89 37.32 220.45 37.48 221.01 37.64C223.89 38.76 225.69 40.76 226.41 43.64C226.49 43.8 226.53 43.96 226.53 44.12C226.61 44.28 226.73 44.48 226.89 44.72C227.05 44.72 227.21 44.64 227.37 44.48C227.61 44.24 227.85 44.16 228.09 44.24C228.49 44.24 228.89 44.44 229.29 44.84C229.45 45 229.61 45.08 229.77 45.08C229.93 45.08 230.09 45.12 230.25 45.2C231.21 45.44 232.01 45.84 232.65 46.4C233.29 46.88 233.89 47.52 234.45 48.32C235.33 49.68 236.05 51.12 236.61 52.64C237.17 54.08 237.65 55.6 238.05 57.2C238.21 57.6 238.37 58.2 238.53 59C238.93 59 239.21 58.92 239.37 58.76C239.61 58.52 239.85 58.32 240.09 58.16C241.37 57.04 242.65 55.96 243.93 54.92C245.29 53.88 246.65 52.88 248.01 51.92C248.41 51.68 248.81 51.44 249.21 51.2C249.69 50.96 250.25 50.92 250.89 51.08C251.53 51.24 251.89 51.48 251.97 51.8C252.05 52.2 251.85 52.56 251.37 52.88C251.05 53.12 250.73 53.36 250.41 53.6C250.17 53.84 249.85 54.08 249.45 54.32C247.85 55.52 246.33 56.76 244.89 58.04C243.45 59.32 241.97 60.64 240.45 62C239.73 62.56 239.41 63.4 239.49 64.52C239.89 67.08 240.13 69.68 240.21 72.32C240.29 74.96 240.17 77.6 239.85 80.24C239.61 82.88 239.29 85.52 238.89 88.16C238.49 90.8 237.85 93.4 236.97 95.96C236.33 97.8 235.57 99.56 234.69 101.24C233.89 102.92 232.81 104.48 231.45 105.92C228.97 108.32 225.97 109.76 222.45 110.24C219.81 110.56 217.09 110.28 214.29 109.4C209.89 108.12 207.93 104.92 208.41 99.8C208.57 97.48 209.09 95.28 209.97 93.2C210.85 91.2 211.97 89.28 213.33 87.44C214.13 86.32 214.89 85.2 215.61 84.08C216.41 83.04 217.25 81.92 218.13 80.72ZM208.77 69.44C208.77 69.92 208.77 70.4 208.77 70.88C208.85 71.36 208.89 71.84 208.89 72.32C209.13 74.56 209.69 76.48 210.57 78.08C211.05 78.88 211.69 79 212.49 78.44C213.13 78.04 213.73 77.6 214.29 77.12C214.85 76.56 215.33 75.96 215.73 75.32C216.53 74.04 217.25 72.8 217.89 71.6C218.61 70.32 219.29 69 219.93 67.64C221.05 65.16 221.97 62.64 222.69 60.08C223.41 57.52 224.13 54.96 224.85 52.4C225.01 52 225.01 51.6 224.85 51.2C224.45 49.92 224.05 48.68 223.65 47.48C223.25 46.2 222.73 45 222.09 43.88C221.85 43.48 221.61 43.16 221.37 42.92C221.21 42.6 220.97 42.28 220.65 41.96C220.01 41.32 219.49 41 219.09 41C218.69 41 218.17 41.28 217.53 41.84C216.89 42.4 216.29 43 215.73 43.64C215.25 44.28 214.77 45 214.29 45.8C212.53 48.6 211.29 51.72 210.57 55.16C209.37 59.88 208.77 64.64 208.77 69.44ZM230.25 72.32C227.69 75.2 225.25 78.12 222.93 81.08C220.61 84.04 218.57 87.2 216.81 90.56C215.53 92.96 214.65 95.6 214.17 98.48C214.01 99.52 213.93 100.52 213.93 101.48C213.93 102.44 214.17 103.4 214.65 104.36C214.89 105 215.13 105.36 215.37 105.44C215.61 105.52 216.05 105.44 216.69 105.2C217.17 105.04 217.61 104.8 218.01 104.48C218.41 104.24 218.81 103.96 219.21 103.64C220.57 102.6 221.69 101.4 222.57 100.04C223.45 98.76 224.25 97.36 224.97 95.84C226.09 93.52 226.97 91.16 227.61 88.76C228.33 86.36 228.93 83.92 229.41 81.44C229.65 79.92 229.85 78.44 230.01 77C230.17 75.48 230.25 73.92 230.25 72.32ZM220.77 77.12C222.29 75.44 223.77 73.8 225.21 72.2C226.73 70.52 228.29 68.88 229.89 67.28C230.37 66.8 230.61 66.12 230.61 65.24C230.61 61.24 230.17 57.04 229.29 52.64C229.29 52.16 229.09 51.76 228.69 51.44C228.05 53.68 227.53 55.92 227.13 58.16C226.73 60.32 226.21 62.44 225.57 64.52C224.93 66.68 224.21 68.8 223.41 70.88C222.61 72.96 221.73 75.04 220.77 77.12Z" fill="#F5F5F5"/>
<path d="M260.394 64.64C260.794 63.68 261.114 62.72 261.354 61.76C261.594 60.72 261.794 59.68 261.954 58.64C262.594 56.08 263.194 53.56 263.754 51.08C264.394 48.6 265.154 46.12 266.034 43.64C266.354 42.76 266.714 41.92 267.114 41.12C267.514 40.24 267.914 39.36 268.314 38.48C269.274 36.88 270.634 36.2 272.394 36.44C275.434 36.76 277.714 38.4 279.234 41.36C279.874 42.8 280.314 44.28 280.554 45.8C280.794 47.24 280.874 48.76 280.794 50.36C280.794 51.4 280.754 52.44 280.674 53.48C280.594 54.44 280.514 55.4 280.434 56.36C280.434 57 280.434 57.68 280.434 58.4C280.514 59.04 280.674 59.68 280.914 60.32C281.154 60.96 281.554 61.12 282.114 60.8C282.514 60.56 282.914 60.36 283.314 60.2C283.794 59.96 284.234 59.64 284.634 59.24C285.674 58.28 286.674 57.32 287.634 56.36C288.594 55.32 289.394 54.12 290.034 52.76C290.434 51.96 290.994 51.64 291.714 51.8C292.434 51.96 292.794 52.36 292.794 53C292.634 54.6 292.234 56 291.594 57.2C290.634 58.8 289.474 60.16 288.114 61.28C286.754 62.4 285.234 63.32 283.554 64.04C283.154 64.2 282.754 64.32 282.354 64.4C282.034 64.4 281.674 64.4 281.274 64.4C277.754 64.24 274.954 63.12 272.874 61.04C270.874 58.96 269.554 56.56 268.914 53.84C268.754 53.04 268.594 52.28 268.434 51.56C268.354 50.76 268.234 50 268.074 49.28C267.674 50.4 267.314 51.56 266.994 52.76C266.754 53.96 266.474 55.16 266.154 56.36C265.514 59.16 264.834 61.96 264.114 64.76C263.474 67.56 262.954 70.4 262.554 73.28C262.394 74.4 262.234 75.56 262.074 76.76C261.914 77.88 261.754 79 261.594 80.12C261.434 81.4 260.954 82.36 260.154 83C259.434 83.56 258.474 83.76 257.274 83.6C254.634 83.28 252.714 81.96 251.514 79.64C250.794 78.44 250.314 77.08 250.074 75.56C249.194 71.96 248.474 68.4 247.914 64.88C247.434 61.28 247.274 57.64 247.434 53.96C247.594 51.56 247.714 49.16 247.794 46.76C247.954 44.36 248.314 42 248.874 39.68C249.274 38 249.794 36.92 250.434 36.44C251.154 35.88 252.394 35.64 254.154 35.72C256.554 35.88 258.674 36.52 260.514 37.64C261.714 38.44 262.274 39.64 262.194 41.24C261.874 43.4 261.594 45.6 261.354 47.84C261.194 50 260.954 52.2 260.634 54.44C260.474 56.12 260.434 57.8 260.514 59.48C260.594 61.16 260.554 62.88 260.394 64.64Z" fill="#F5F5F5"/>
<path d="M314.618 61.88C313.978 63.72 313.338 65.52 312.698 67.28C312.058 69.04 311.418 70.8 310.778 72.56C309.978 74.88 308.898 77.2 307.538 79.52C305.698 82.48 303.138 83.68 299.858 83.12C296.578 82.64 293.938 81.12 291.938 78.56C289.458 75.12 288.178 71.44 288.098 67.52C287.938 63.6 288.098 59.8 288.578 56.12C289.138 52.36 290.378 48.68 292.298 45.08C292.698 44.28 293.138 43.56 293.618 42.92C294.178 42.2 294.778 41.52 295.418 40.88C297.098 39.04 298.978 37.84 301.058 37.28C303.218 36.64 305.498 36.44 307.898 36.68C309.258 36.84 310.578 37.16 311.858 37.64C313.138 38.04 314.258 38.84 315.218 40.04C315.618 39.72 315.818 39.4 315.818 39.08C315.898 38.76 316.018 38.44 316.178 38.12C316.658 37 317.458 36.32 318.578 36.08C319.778 35.84 320.898 35.84 321.938 36.08C323.058 36.32 324.138 36.76 325.178 37.4C326.058 38.04 326.458 39 326.378 40.28C325.658 43.88 325.098 47.48 324.698 51.08C324.378 54.68 324.338 58.28 324.578 61.88C324.738 64.28 324.978 66.68 325.298 69.08C325.618 71.48 326.138 73.84 326.858 76.16C327.098 77.28 327.498 78.2 328.058 78.92C328.458 78.76 328.738 78.56 328.898 78.32C329.138 78 329.338 77.72 329.498 77.48C330.378 76.2 331.098 74.88 331.658 73.52C332.298 72.16 332.858 70.8 333.338 69.44C334.298 66.88 335.218 64.32 336.098 61.76C337.058 59.12 337.858 56.44 338.498 53.72C338.658 53.32 338.818 52.92 338.978 52.52C339.138 52.12 339.298 51.72 339.458 51.32C339.698 50.76 340.258 50.56 341.138 50.72C341.778 50.8 342.018 51.24 341.858 52.04C341.858 53 341.738 53.96 341.498 54.92C340.618 58.52 339.658 62.12 338.618 65.72C337.578 69.32 336.418 72.92 335.138 76.52C334.818 77.32 334.458 78.12 334.058 78.92C333.738 79.72 333.298 80.48 332.738 81.2C331.618 82.56 330.258 83.2 328.658 83.12C324.258 83.04 321.018 81.04 318.938 77.12C317.898 75.28 317.098 73.36 316.538 71.36C315.978 69.36 315.538 67.32 315.218 65.24C315.058 64.6 314.938 64.04 314.858 63.56C314.858 63 314.778 62.44 314.618 61.88ZM301.538 78.92C302.178 78.68 302.658 78.4 302.978 78.08C303.298 77.68 303.658 77.28 304.058 76.88C305.018 75.76 305.858 74.6 306.578 73.4C307.298 72.2 307.978 70.92 308.618 69.56C309.498 67.64 310.258 65.72 310.898 63.8C311.538 61.8 312.178 59.84 312.818 57.92C313.218 56.64 313.538 55.4 313.778 54.2C314.018 52.92 314.098 51.6 314.018 50.24C314.018 48.72 313.778 47.32 313.298 46.04C312.818 44.76 312.138 43.52 311.258 42.32C310.858 41.68 310.338 41.2 309.698 40.88C309.058 40.4 308.458 40.4 307.898 40.88L306.818 41.6C305.698 42.56 304.738 43.68 303.938 44.96C303.218 46.16 302.618 47.44 302.138 48.8C299.338 55.92 298.378 63.24 299.258 70.76C299.498 73.64 300.258 76.36 301.538 78.92Z" fill="#F5F5F5"/>
<path d="M389.877 79.76C390.517 79.28 391.037 78.8 391.437 78.32C391.837 77.84 392.237 77.32 392.637 76.76C394.237 74.44 395.557 72.04 396.597 69.56C397.637 67.08 398.597 64.52 399.477 61.88C400.517 58.84 401.277 55.56 401.757 52.04C401.837 51.8 401.877 51.6 401.877 51.44C401.877 51.2 401.917 50.96 401.997 50.72C402.157 49.92 402.557 49.56 403.197 49.64C403.917 49.88 404.277 50.36 404.277 51.08C404.277 52.84 404.117 54.4 403.797 55.76C403.157 59.44 402.357 63.04 401.397 66.56C400.437 70.08 399.197 73.52 397.677 76.88C397.277 77.68 396.877 78.48 396.477 79.28C396.157 80 395.757 80.72 395.277 81.44C393.757 84 391.557 84.88 388.677 84.08C386.117 83.44 384.117 82.36 382.677 80.84C381.237 79.24 380.197 77.2 379.557 74.72C379.317 73.6 379.157 72.44 379.077 71.24C378.997 70.04 378.917 68.84 378.837 67.64C378.677 64.92 378.677 62.24 378.837 59.6C378.997 56.88 379.157 54.16 379.317 51.44C379.477 49.92 379.517 48.44 379.437 47C379.437 45.56 379.437 44.08 379.437 42.56C379.437 42.24 379.357 42 379.197 41.84C378.877 41.84 378.677 41.96 378.597 42.2C378.597 42.36 378.517 42.52 378.357 42.68C377.317 44.28 376.517 45.92 375.957 47.6C375.397 49.28 374.917 51.04 374.517 52.88C374.117 54.96 373.717 57.04 373.317 59.12C372.917 61.2 372.517 63.28 372.117 65.36C371.957 66.24 371.797 67.16 371.637 68.12C371.477 69 371.197 69.88 370.797 70.76C370.317 71.88 369.557 72.48 368.517 72.56C367.557 72.72 366.637 72.56 365.757 72.08C364.877 71.6 364.157 70.96 363.597 70.16C362.717 68.72 362.157 67.24 361.917 65.72C361.677 64.12 361.477 62.52 361.317 60.92C361.077 56.84 360.957 52.72 360.957 48.56C360.957 48.24 360.957 47.96 360.957 47.72C360.957 47.4 360.837 47.08 360.597 46.76C359.957 47.16 359.477 47.64 359.157 48.2C358.837 48.68 358.477 49.24 358.077 49.88C356.317 52.68 354.877 55.64 353.757 58.76C352.637 61.8 351.757 64.96 351.117 68.24C350.717 69.84 350.357 71.48 350.037 73.16C349.717 74.76 349.477 76.36 349.317 77.96C349.237 78.52 349.157 79.08 349.077 79.64C348.997 80.2 348.997 80.8 349.077 81.44C349.077 83.28 348.157 84.2 346.317 84.2C344.717 84.04 343.317 83.64 342.117 83C340.997 82.36 340.117 81.28 339.477 79.76C338.597 77.28 337.957 74.56 337.557 71.6C337.397 69.76 337.277 67.96 337.197 66.2C337.197 64.36 337.237 62.52 337.317 60.68C337.477 57.4 337.637 54.16 337.797 50.96C338.037 47.76 338.357 44.52 338.757 41.24C338.837 40.6 338.917 40 338.997 39.44C339.077 38.88 339.197 38.32 339.357 37.76C339.597 36.64 340.317 36 341.517 35.84C344.397 35.6 347.037 36.48 349.437 38.48C350.237 39.12 350.517 39.92 350.277 40.88C349.957 41.76 349.757 42.68 349.677 43.64C349.677 44.52 349.597 45.4 349.437 46.28C349.277 48.2 349.117 50.12 348.957 52.04C348.797 53.88 348.757 55.72 348.837 57.56C348.837 57.72 348.837 57.84 348.837 57.92C348.837 58 348.917 58.12 349.077 58.28C349.317 57.88 349.477 57.52 349.557 57.2C349.637 56.8 349.757 56.4 349.917 56C350.397 54.56 350.917 53.12 351.477 51.68C352.037 50.24 352.637 48.84 353.277 47.48C354.077 45.8 355.157 44.2 356.517 42.68C358.197 40.92 360.237 40.32 362.637 40.88C364.637 41.36 366.277 42.2 367.557 43.4C368.917 44.52 369.877 46.12 370.437 48.2C370.517 48.36 370.597 48.56 370.677 48.8C370.757 48.96 370.837 49.16 370.917 49.4C371.237 49.24 371.397 49.04 371.397 48.8C371.397 48.56 371.437 48.32 371.517 48.08C371.837 47.12 372.117 46.16 372.357 45.2C372.677 44.24 372.997 43.32 373.317 42.44C373.557 41.64 373.877 40.92 374.277 40.28C374.677 39.56 375.117 38.88 375.597 38.24C376.317 37.2 377.157 36.56 378.117 36.32C379.157 36.08 380.237 36.08 381.357 36.32C384.397 37.12 386.717 38.96 388.317 41.84C389.037 43.12 389.557 44.48 389.877 45.92C390.197 47.28 390.397 48.64 390.477 50C390.637 53.04 390.637 56.08 390.477 59.12C390.317 62.16 390.117 65.2 389.877 68.24C389.717 69.6 389.597 70.92 389.517 72.2C389.437 73.4 389.397 74.68 389.397 76.04C389.397 77.24 389.557 78.48 389.877 79.76Z" fill="#F5F5F5"/>
</svg>
